<svg width="70" height="10" viewBox="0 0 70 10" fill="none" xmlns="http://www.w3.org/2000/svg">
<path d="M0.265803 9V0.272727H3.21467C3.89933 0.272727 4.45898 0.396307 4.89364 0.643466C5.33114 0.887784 5.65501 1.21875 5.86523 1.63636C6.07546 2.05398 6.18058 2.51989 6.18058 3.03409C6.18058 3.5483 6.07546 4.01562 5.86523 4.43608C5.65785 4.85653 5.33683 5.19176 4.90217 5.44176C4.46751 5.68892 3.91069 5.8125 3.23171 5.8125H1.11808V4.875H3.19762C3.66637 4.875 4.04279 4.79403 4.32688 4.6321C4.61097 4.47017 4.81694 4.25142 4.94478 3.97585C5.07546 3.69744 5.1408 3.38352 5.1408 3.03409C5.1408 2.68466 5.07546 2.37216 4.94478 2.09659C4.81694 1.82102 4.60955 1.60511 4.32262 1.44886C4.03569 1.28977 3.65501 1.21023 3.18058 1.21023H1.32262V9H0.265803ZM18.6216 4.63636C18.6216 5.55682 18.4554 6.35227 18.123 7.02273C17.7907 7.69318 17.3347 8.21023 16.7551 8.57386C16.1756 8.9375 15.5137 9.11932 14.7694 9.11932C14.025 9.11932 13.3631 8.9375 12.7836 8.57386C12.204 8.21023 11.748 7.69318 11.4157 7.02273C11.0833 6.35227 10.9171 5.55682 10.9171 4.63636C10.9171 3.71591 11.0833 2.92045 11.4157 2.25C11.748 1.57955 12.204 1.0625 12.7836 0.698864C13.3631 0.335227 14.025 0.153409 14.7694 0.153409C15.5137 0.153409 16.1756 0.335227 16.7551 0.698864C17.3347 1.0625 17.7907 1.57955 18.123 2.25C18.4554 2.92045 18.6216 3.71591 18.6216 4.63636ZM17.5989 4.63636C17.5989 3.88068 17.4725 3.2429 17.2196 2.72301C16.9696 2.20312 16.6301 1.80966 16.2012 1.54261C15.775 1.27557 15.2978 1.14205 14.7694 1.14205C14.2409 1.14205 13.7623 1.27557 13.3333 1.54261C12.9071 1.80966 12.5676 2.20312 12.3148 2.72301C12.0648 3.2429 11.9398 3.88068 11.9398 4.63636C11.9398 5.39205 12.0648 6.02983 12.3148 6.54972C12.5676 7.0696 12.9071 7.46307 13.3333 7.73011C13.7623 7.99716 14.2409 8.13068 14.7694 8.13068C15.2978 8.13068 15.775 7.99716 16.2012 7.73011C16.6301 7.46307 16.9696 7.0696 17.2196 6.54972C17.4725 6.02983 17.5989 5.39205 17.5989 4.63636ZM23.7736 9V0.272727H26.7225C27.4043 0.272727 27.964 0.389204 28.4015 0.622159C28.839 0.852272 29.1628 1.16903 29.373 1.57244C29.5833 1.97585 29.6884 2.43466 29.6884 2.94886C29.6884 3.46307 29.5833 3.91903 29.373 4.31676C29.1628 4.71449 28.8404 5.02699 28.4057 5.25426C27.9711 5.47869 27.4157 5.59091 26.7395 5.59091H24.3532V4.63636H26.7054C27.1713 4.63636 27.5463 4.56818 27.8304 4.43182C28.1174 4.29545 28.3248 4.10227 28.4526 3.85227C28.5833 3.59943 28.6486 3.2983 28.6486 2.94886C28.6486 2.59943 28.5833 2.29403 28.4526 2.03267C28.3219 1.77131 28.1131 1.5696 27.8262 1.42756C27.5392 1.28267 27.16 1.21023 26.6884 1.21023H24.8304V9H23.7736ZM27.8816 5.07955L30.0293 9H28.802L26.6884 5.07955H27.8816ZM34.3471 1.21023V0.272727H40.8926V1.21023H38.1483V9H37.0914V1.21023H34.3471ZM46.9554 0.272727V9H45.8986V0.272727H46.9554ZM52.4494 9V0.272727H57.6824V1.21023H53.5062V4.15909H57.2903V5.09659H53.5062V9H52.4494ZM62.1174 0.272727H63.3276L65.748 4.34659H65.8503L68.2708 0.272727H69.481L66.3276 5.40341V9H65.2708V5.40341L62.1174 0.272727Z" fill="white"/>
<path d="M0.265803 9H-0.234197C-0.234197 9.27614 -0.0103398 9.5 0.265803 9.5V9ZM0.265803 0.272727V-0.227273C-0.0103398 -0.227273 -0.234197 -0.00341536 -0.234197 0.272727H0.265803ZM4.89364 0.643466L4.64649 1.07812L4.64986 1.08001L4.89364 0.643466ZM5.86523 1.63636L5.41863 1.86118L5.41863 1.86118L5.86523 1.63636ZM5.86523 4.43608L5.41801 4.21247L5.41682 4.2149L5.86523 4.43608ZM4.90217 5.44176L5.14932 5.87641L5.15146 5.87518L4.90217 5.44176ZM1.11808 5.8125H0.618075C0.618075 6.08864 0.841933 6.3125 1.11808 6.3125V5.8125ZM1.11808 4.875V4.375C0.841933 4.375 0.618075 4.59886 0.618075 4.875H1.11808ZM4.32688 4.6321L4.07928 4.19771L4.07928 4.19771L4.32688 4.6321ZM4.94478 3.97585L4.49216 3.7634L4.49121 3.76543L4.94478 3.97585ZM4.94478 2.09659L4.4912 2.30702L4.49301 2.31083L4.94478 2.09659ZM4.32262 1.44886L4.08016 1.88616L4.0835 1.88798L4.32262 1.44886ZM1.32262 1.21023V0.710227C1.04648 0.710227 0.822621 0.934085 0.822621 1.21023H1.32262ZM1.32262 9V9.5C1.59876 9.5 1.82262 9.27614 1.82262 9H1.32262ZM0.765803 9V0.272727H-0.234197V9H0.765803ZM0.265803 0.772727H3.21467V-0.227273H0.265803V0.772727ZM3.21467 0.772727C3.84328 0.772727 4.30992 0.886729 4.64649 1.07811L5.14079 0.20882C4.60805 -0.0941155 3.95537 -0.227273 3.21467 -0.227273V0.772727ZM4.64986 1.08001C5.00669 1.27928 5.25661 1.53933 5.41863 1.86118L6.31184 1.41154C6.05341 0.898172 5.65559 0.496288 5.13743 0.206923L4.64986 1.08001ZM5.41863 1.86118C5.59035 2.20231 5.68058 2.59005 5.68058 3.03409H6.68058C6.68058 2.44972 6.56057 1.90564 6.31184 1.41154L5.41863 1.86118ZM5.68058 3.03409C5.68058 3.47808 5.59037 3.86778 5.41802 4.21247L6.31245 4.65969C6.56056 4.16347 6.68058 3.61851 6.68058 3.03409H5.68058ZM5.41682 4.2149C5.25639 4.54015 5.00786 4.80416 4.65288 5.00834L5.15146 5.87518C5.66579 5.57936 6.05931 5.17292 6.31365 4.65726L5.41682 4.2149ZM4.65502 5.00712C4.3179 5.19881 3.85379 5.3125 3.23171 5.3125V6.3125C3.96759 6.3125 4.61711 6.17903 5.14932 5.87641L4.65502 5.00712ZM3.23171 5.3125H1.11808V6.3125H3.23171V5.3125ZM1.61808 5.8125V4.875H0.618075V5.8125H1.61808ZM1.11808 5.375H3.19762V4.375H1.11808V5.375ZM3.19762 5.375C3.71779 5.375 4.18922 5.28609 4.57448 5.06649L4.07928 4.19771C3.89636 4.30198 3.61495 4.375 3.19762 4.375V5.375ZM4.57448 5.06649C4.94155 4.85726 5.22339 4.56341 5.39835 4.18627L4.49121 3.76543C4.41049 3.93943 4.2804 4.08308 4.07928 4.19771L4.57448 5.06649ZM5.3974 4.18831C5.56328 3.83491 5.6408 3.44694 5.6408 3.03409H4.6408C4.6408 3.3201 4.58764 3.55998 4.49216 3.7634L5.3974 4.18831ZM5.6408 3.03409C5.6408 2.62135 5.56331 2.23399 5.39655 1.88235L4.49301 2.31083C4.58761 2.51033 4.6408 2.74796 4.6408 3.03409H5.6408ZM5.39835 1.88617C5.22191 1.50584 4.93528 1.21316 4.56174 1.00975L4.0835 1.88798C4.28382 1.99706 4.41197 2.1362 4.49121 2.30701L5.39835 1.88617ZM4.56507 1.01158C4.17816 0.797055 3.70443 0.710227 3.18058 0.710227V1.71023C3.60558 1.71023 3.89322 1.78249 4.08017 1.88615L4.56507 1.01158ZM3.18058 0.710227H1.32262V1.71023H3.18058V0.710227ZM0.822621 1.21023V9H1.82262V1.21023H0.822621ZM1.32262 8.5H0.265803V9.5H1.32262V8.5ZM18.123 7.02273L17.6751 6.80064L17.6751 6.80064L18.123 7.02273ZM16.7551 8.57386L17.0209 8.9974L17.0209 8.9974L16.7551 8.57386ZM12.7836 8.57386L12.5178 8.9974L12.5178 8.9974L12.7836 8.57386ZM11.4157 7.02273L11.8636 6.80064L11.8636 6.80064L11.4157 7.02273ZM16.7551 0.698864L17.0209 0.275332L17.0209 0.275332L16.7551 0.698864ZM18.123 2.25L17.6751 2.47209L17.6751 2.47209L18.123 2.25ZM17.2196 2.72301L16.769 2.9397L16.77 2.94169L17.2196 2.72301ZM16.2012 1.54261L15.9357 1.9663L15.9369 1.96709L16.2012 1.54261ZM13.3333 1.54261L13.069 1.11814L13.0678 1.11893L13.3333 1.54261ZM12.3148 2.72301L11.8652 2.50433L11.8642 2.50633L12.3148 2.72301ZM12.3148 6.54972L11.8642 6.7664L11.8652 6.7684L12.3148 6.54972ZM13.3333 7.73011L13.0678 8.1538L13.069 8.15459L13.3333 7.73011ZM16.2012 7.73011L15.9369 7.30564L15.9357 7.30643L16.2012 7.73011ZM17.2196 6.54972L16.77 6.33103L16.769 6.33303L17.2196 6.54972ZM18.1216 4.63636C18.1216 5.49716 17.9663 6.21327 17.6751 6.80064L18.571 7.24481C18.9446 6.49127 19.1216 5.61647 19.1216 4.63636H18.1216ZM17.6751 6.80064C17.3797 7.39644 16.9835 7.84029 16.4894 8.15033L17.0209 8.9974C17.6859 8.58016 18.2016 7.98993 18.571 7.24481L17.6751 6.80064ZM16.4894 8.15033C15.9965 8.45963 15.4282 8.61932 14.7694 8.61932V9.61932C15.5991 9.61932 16.3547 9.41537 17.0209 8.9974L16.4894 8.15033ZM14.7694 8.61932C14.1105 8.61932 13.5422 8.45963 13.0493 8.15033L12.5178 8.9974C13.184 9.41537 13.9396 9.61932 14.7694 9.61932V8.61932ZM13.0493 8.15033C12.5552 7.84029 12.159 7.39644 11.8636 6.80064L10.9677 7.24481C11.3371 7.98993 11.8529 8.58016 12.5178 8.9974L13.0493 8.15033ZM11.8636 6.80064C11.5724 6.21327 11.4171 5.49716 11.4171 4.63636H10.4171C10.4171 5.61647 10.5941 6.49127 10.9677 7.24481L11.8636 6.80064ZM11.4171 4.63636C11.4171 3.77556 11.5724 3.05945 11.8636 2.47209L10.9677 2.02791C10.5941 2.78145 10.4171 3.65625 10.4171 4.63636H11.4171ZM11.8636 2.47209C12.159 1.87629 12.5552 1.43244 13.0493 1.1224L12.5178 0.275332C11.8529 0.692563 11.3371 1.2828 10.9677 2.02791L11.8636 2.47209ZM13.0493 1.1224C13.5422 0.813096 14.1105 0.653409 14.7694 0.653409V-0.346591C13.9396 -0.346591 13.184 -0.142642 12.5178 0.275332L13.0493 1.1224ZM14.7694 0.653409C15.4282 0.653409 15.9965 0.813096 16.4894 1.1224L17.0209 0.275332C16.3547 -0.142642 15.5991 -0.346591 14.7694 -0.346591V0.653409ZM16.4894 1.1224C16.9835 1.43244 17.3797 1.87629 17.6751 2.47209L18.571 2.02791C18.2016 1.2828 17.6859 0.692563 17.0209 0.275332L16.4894 1.1224ZM17.6751 2.47209C17.9663 3.05945 18.1216 3.77556 18.1216 4.63636H19.1216C19.1216 3.65625 18.9446 2.78145 18.571 2.02791L17.6751 2.47209ZM18.0989 4.63636C18.0989 3.82727 17.9638 3.10995 17.6693 2.50433L16.77 2.94169C16.9811 3.37584 17.0989 3.93409 17.0989 4.63636H18.0989ZM17.6702 2.50633C17.3851 1.91331 16.9859 1.44217 16.4654 1.11814L15.9369 1.96709C16.2744 2.17715 16.5542 2.49294 16.769 2.9397L17.6702 2.50633ZM16.4667 1.11893C15.9568 0.79943 15.3867 0.642045 14.7694 0.642045V1.64205C15.2088 1.64205 15.5932 1.75171 15.9357 1.96629L16.4667 1.11893ZM14.7694 0.642045C14.152 0.642045 13.581 0.799418 13.069 1.11814L13.5975 1.96709C13.9435 1.75172 14.3299 1.64205 14.7694 1.64205V0.642045ZM13.0678 1.11893C12.551 1.4428 12.1527 1.91308 11.8652 2.50433L12.7645 2.94169C12.9826 2.49317 13.2633 2.17651 13.5988 1.96629L13.0678 1.11893ZM11.8642 2.50633C11.5732 3.1114 11.4398 3.82797 11.4398 4.63636H12.4398C12.4398 3.93339 12.5564 3.3744 12.7654 2.9397L11.8642 2.50633ZM11.4398 4.63636C11.4398 5.44476 11.5732 6.16133 11.8642 6.7664L12.7654 6.33303C12.5564 5.89833 12.4398 5.33933 12.4398 4.63636H11.4398ZM11.8652 6.7684C12.1527 7.35965 12.551 7.82992 13.0678 8.1538L13.5988 7.30643C13.2633 7.09621 12.9826 6.77956 12.7645 6.33104L11.8652 6.7684ZM13.069 8.15459C13.581 8.47331 14.152 8.63068 14.7694 8.63068V7.63068C14.3299 7.63068 13.9435 7.52101 13.5975 7.30564L13.069 8.15459ZM14.7694 8.63068C15.3867 8.63068 15.9568 8.4733 16.4667 8.1538L15.9357 7.30643C15.5932 7.52102 15.2088 7.63068 14.7694 7.63068V8.63068ZM16.4654 8.15459C16.9859 7.83056 17.3851 7.35941 17.6702 6.7664L16.769 6.33303C16.5542 6.77979 16.2744 7.09558 15.9369 7.30564L16.4654 8.15459ZM17.6693 6.7684C17.9638 6.16277 18.0989 5.44545 18.0989 4.63636H17.0989C17.0989 5.33864 16.9811 5.89688 16.77 6.33104L17.6693 6.7684ZM23.7736 9H23.2736C23.2736 9.27614 23.4975 9.5 23.7736 9.5V9ZM23.7736 0.272727V-0.227273C23.4975 -0.227273 23.2736 -0.00341536 23.2736 0.272727H23.7736ZM28.4015 0.622159L28.1665 1.0635L28.1687 1.06468L28.4015 0.622159ZM29.373 1.57244L28.9296 1.80351L28.9296 1.80351L29.373 1.57244ZM29.373 4.31676L28.931 4.08311L28.931 4.08311L29.373 4.31676ZM28.4057 5.25426L28.6351 5.69854L28.6374 5.69735L28.4057 5.25426ZM24.3532 5.59091H23.8532C23.8532 5.86705 24.077 6.09091 24.3532 6.09091V5.59091ZM24.3532 4.63636V4.13636C24.077 4.13636 23.8532 4.36022 23.8532 4.63636H24.3532ZM27.8304 4.43182L27.6158 3.98022L27.6141 3.98106L27.8304 4.43182ZM28.4526 3.85227L28.0084 3.62269L28.0074 3.62463L28.4526 3.85227ZM27.8262 1.42756L27.6008 1.8739L27.6043 1.87565L27.8262 1.42756ZM24.8304 1.21023V0.710227C24.5543 0.710227 24.3304 0.934085 24.3304 1.21023H24.8304ZM24.8304 9V9.5C25.1066 9.5 25.3304 9.27614 25.3304 9H24.8304ZM27.8816 5.07955L28.3201 4.83932C28.2323 4.67913 28.0642 4.57955 27.8816 4.57955V5.07955ZM30.0293 9V9.5C30.2059 9.5 30.3695 9.40681 30.4595 9.25484C30.5495 9.10287 30.5527 8.91468 30.4678 8.75977L30.0293 9ZM28.802 9L28.3619 9.23728C28.4492 9.39911 28.6182 9.5 28.802 9.5V9ZM26.6884 5.07955V4.57955C26.5124 4.57955 26.3493 4.67211 26.2591 4.82326C26.1688 4.97441 26.1647 5.16187 26.2483 5.31682L26.6884 5.07955ZM24.2736 9V0.272727H23.2736V9H24.2736ZM23.7736 0.772727H26.7225V-0.227273H23.7736V0.772727ZM26.7225 0.772727C27.3516 0.772727 27.8233 0.880788 28.1665 1.06349L28.6365 0.180824C28.1046 -0.10238 27.457 -0.227273 26.7225 -0.227273V0.772727ZM28.1687 1.06468C28.5243 1.25171 28.7706 1.49827 28.9296 1.80351L29.8165 1.34137C29.5551 0.8398 29.1536 0.452834 28.6342 0.179637L28.1687 1.06468ZM28.9296 1.80351C29.0981 2.12673 29.1884 2.50451 29.1884 2.94886H30.1884C30.1884 2.36481 30.0685 1.82497 29.8165 1.34137L28.9296 1.80351ZM29.1884 2.94886C29.1884 3.39337 29.098 3.7671 28.931 4.08311L29.8151 4.55041C30.0685 4.07097 30.1884 3.53276 30.1884 2.94886H29.1884ZM28.931 4.08311C28.7724 4.38323 28.5275 4.62637 28.174 4.81118L28.6374 5.69735C29.1533 5.42761 29.5533 5.04575 29.8151 4.55041L28.931 4.08311ZM28.1763 4.80999C27.8344 4.98653 27.3647 5.09091 26.7395 5.09091V6.09091C27.4666 6.09091 28.1077 5.97086 28.6351 5.69853L28.1763 4.80999ZM26.7395 5.09091H24.3532V6.09091H26.7395V5.09091ZM24.8532 5.59091V4.63636H23.8532V5.59091H24.8532ZM24.3532 5.13636H26.7054V4.13636H24.3532V5.13636ZM26.7054 5.13636C27.2133 5.13636 27.6707 5.06309 28.0468 4.88258L27.6141 3.98106C27.4219 4.07328 27.1293 4.13636 26.7054 4.13636V5.13636ZM28.0451 4.88341C28.4177 4.70633 28.7133 4.44062 28.8978 4.07992L28.0074 3.62463C27.9362 3.76393 27.8171 3.88458 27.6158 3.98022L28.0451 4.88341ZM28.8968 4.08185C29.0716 3.74367 29.1486 3.36026 29.1486 2.94886H28.1486C28.1486 3.23633 28.095 3.45519 28.0084 3.6227L28.8968 4.08185ZM29.1486 2.94886C29.1486 2.53687 29.0714 2.15217 28.8998 1.80906L28.0054 2.25628C28.0952 2.43589 28.1486 2.66199 28.1486 2.94886H29.1486ZM28.8998 1.80906C28.7157 1.44092 28.4226 1.16492 28.048 0.979459L27.6043 1.87565C27.8036 1.97429 27.9281 2.1017 28.0054 2.25628L28.8998 1.80906ZM28.0515 0.981231C27.6698 0.788457 27.2045 0.710227 26.6884 0.710227V1.71023C27.1155 1.71023 27.4087 1.77688 27.6008 1.87388L28.0515 0.981231ZM26.6884 0.710227H24.8304V1.71023H26.6884V0.710227ZM24.3304 1.21023V9H25.3304V1.21023H24.3304ZM24.8304 8.5H23.7736V9.5H24.8304V8.5ZM27.4431 5.31977L29.5908 9.24023L30.4678 8.75977L28.3201 4.83932L27.4431 5.31977ZM30.0293 8.5H28.802V9.5H30.0293V8.5ZM29.2421 8.76272L27.1285 4.84227L26.2483 5.31682L28.3619 9.23728L29.2421 8.76272ZM26.6884 5.57955H27.8816V4.57955H26.6884V5.57955ZM34.3471 1.21023H33.8471C33.8471 1.48637 34.071 1.71023 34.3471 1.71023V1.21023ZM34.3471 0.272727V-0.227273C34.071 -0.227273 33.8471 -0.00341536 33.8471 0.272727H34.3471ZM40.8926 0.272727H41.3926C41.3926 -0.00341536 41.1687 -0.227273 40.8926 -0.227273V0.272727ZM40.8926 1.21023V1.71023C41.1687 1.71023 41.3926 1.48637 41.3926 1.21023H40.8926ZM38.1483 1.21023V0.710227C37.8721 0.710227 37.6483 0.934085 37.6483 1.21023H38.1483ZM38.1483 9V9.5C38.4244 9.5 38.6483 9.27614 38.6483 9H38.1483ZM37.0914 9H36.5914C36.5914 9.27614 36.8153 9.5 37.0914 9.5V9ZM37.0914 1.21023H37.5914C37.5914 0.934085 37.3676 0.710227 37.0914 0.710227V1.21023ZM34.8471 1.21023V0.272727H33.8471V1.21023H34.8471ZM34.3471 0.772727H40.8926V-0.227273H34.3471V0.772727ZM40.3926 0.272727V1.21023H41.3926V0.272727H40.3926ZM40.8926 0.710227H38.1483V1.71023H40.8926V0.710227ZM37.6483 1.21023V9H38.6483V1.21023H37.6483ZM38.1483 8.5H37.0914V9.5H38.1483V8.5ZM37.5914 9V1.21023H36.5914V9H37.5914ZM37.0914 0.710227H34.3471V1.71023H37.0914V0.710227ZM46.9554 0.272727H47.4554C47.4554 -0.00341536 47.2316 -0.227273 46.9554 -0.227273V0.272727ZM46.9554 9V9.5C47.2316 9.5 47.4554 9.27614 47.4554 9H46.9554ZM45.8986 9H45.3986C45.3986 9.27614 45.6225 9.5 45.8986 9.5V9ZM45.8986 0.272727V-0.227273C45.6225 -0.227273 45.3986 -0.00341536 45.3986 0.272727H45.8986ZM46.4554 0.272727V9H47.4554V0.272727H46.4554ZM46.9554 8.5H45.8986V9.5H46.9554V8.5ZM46.3986 9V0.272727H45.3986V9H46.3986ZM45.8986 0.772727H46.9554V-0.227273H45.8986V0.772727ZM52.4494 9H51.9494C51.9494 9.27614 52.1733 9.5 52.4494 9.5V9ZM52.4494 0.272727V-0.227273C52.1733 -0.227273 51.9494 -0.00341536 51.9494 0.272727H52.4494ZM57.6824 0.272727H58.1824C58.1824 -0.00341536 57.9585 -0.227273 57.6824 -0.227273V0.272727ZM57.6824 1.21023V1.71023C57.9585 1.71023 58.1824 1.48637 58.1824 1.21023H57.6824ZM53.5062 1.21023V0.710227C53.2301 0.710227 53.0062 0.934085 53.0062 1.21023H53.5062ZM53.5062 4.15909H53.0062C53.0062 4.43523 53.2301 4.65909 53.5062 4.65909V4.15909ZM57.2903 4.15909H57.7903C57.7903 3.88295 57.5664 3.65909 57.2903 3.65909V4.15909ZM57.2903 5.09659V5.59659C57.5664 5.59659 57.7903 5.37273 57.7903 5.09659H57.2903ZM53.5062 5.09659V4.59659C53.2301 4.59659 53.0062 4.82045 53.0062 5.09659H53.5062ZM53.5062 9V9.5C53.7824 9.5 54.0062 9.27614 54.0062 9H53.5062ZM52.9494 9V0.272727H51.9494V9H52.9494ZM52.4494 0.772727H57.6824V-0.227273H52.4494V0.772727ZM57.1824 0.272727V1.21023H58.1824V0.272727H57.1824ZM57.6824 0.710227H53.5062V1.71023H57.6824V0.710227ZM53.0062 1.21023V4.15909H54.0062V1.21023H53.0062ZM53.5062 4.65909H57.2903V3.65909H53.5062V4.65909ZM56.7903 4.15909V5.09659H57.7903V4.15909H56.7903ZM57.2903 4.59659H53.5062V5.59659H57.2903V4.59659ZM53.0062 5.09659V9H54.0062V5.09659H53.0062ZM53.5062 8.5H52.4494V9.5H53.5062V8.5ZM62.1174 0.272727V-0.227273C61.9363 -0.227273 61.7693 -0.129355 61.681 0.0287044C61.5926 0.186764 61.5966 0.380258 61.6914 0.534539L62.1174 0.272727ZM63.3276 0.272727L63.7574 0.017333C63.6673 -0.13432 63.504 -0.227273 63.3276 -0.227273V0.272727ZM65.748 4.34659L65.3182 4.60198C65.4083 4.75364 65.5716 4.84659 65.748 4.84659V4.34659ZM65.8503 4.34659V4.84659C66.0267 4.84659 66.1901 4.75364 66.2802 4.60198L65.8503 4.34659ZM68.2708 0.272727V-0.227273C68.0944 -0.227273 67.931 -0.13432 67.8409 0.017333L68.2708 0.272727ZM69.481 0.272727L69.907 0.534539C70.0018 0.380258 70.0058 0.186764 69.9174 0.0287044C69.829 -0.129355 69.6621 -0.227273 69.481 -0.227273V0.272727ZM66.3276 5.40341L65.9016 5.1416C65.8532 5.22035 65.8276 5.31097 65.8276 5.40341H66.3276ZM66.3276 9V9.5C66.6037 9.5 66.8276 9.27614 66.8276 9H66.3276ZM65.2708 9H64.7708C64.7708 9.27614 64.9946 9.5 65.2708 9.5V9ZM65.2708 5.40341H65.7708C65.7708 5.31097 65.7452 5.22035 65.6967 5.1416L65.2708 5.40341ZM62.1174 0.772727H63.3276V-0.227273H62.1174V0.772727ZM62.8977 0.528121L65.3182 4.60198L66.1779 4.0912L63.7574 0.017333L62.8977 0.528121ZM65.748 4.84659H65.8503V3.84659H65.748V4.84659ZM66.2802 4.60198L68.7006 0.528121L67.8409 0.017333L65.4205 4.0912L66.2802 4.60198ZM68.2708 0.772727H69.481V-0.227273H68.2708V0.772727ZM69.055 0.0109152L65.9016 5.1416L66.7536 5.66522L69.907 0.534539L69.055 0.0109152ZM65.8276 5.40341V9H66.8276V5.40341H65.8276ZM66.3276 8.5H65.2708V9.5H66.3276V8.5ZM65.7708 9V5.40341H64.7708V9H65.7708ZM65.6967 5.1416L62.5433 0.0109152L61.6914 0.534539L64.8448 5.66522L65.6967 5.1416Z" fill="white"/>
</svg>
