<svg width="70" height="10" viewBox="0 0 70 10" fill="none" xmlns="http://www.w3.org/2000/svg">
<path d="M0.265803 9V0.272727H3.21467C3.89933 0.272727 4.45898 0.396307 4.89364 0.643466C5.33114 0.887784 5.65501 1.21875 5.86523 1.63636C6.07546 2.05398 6.18058 2.51989 6.18058 3.03409C6.18058 3.5483 6.07546 4.01562 5.86523 4.43608C5.65785 4.85653 5.33683 5.19176 4.90217 5.44176C4.46751 5.68892 3.91069 5.8125 3.23171 5.8125H1.11808V4.875H3.19762C3.66637 4.875 4.04279 4.79403 4.32688 4.6321C4.61097 4.47017 4.81694 4.25142 4.94478 3.97585C5.07546 3.69744 5.1408 3.38352 5.1408 3.03409C5.1408 2.68466 5.07546 2.37216 4.94478 2.09659C4.81694 1.82102 4.60955 1.60511 4.32262 1.44886C4.03569 1.28977 3.65501 1.21023 3.18058 1.21023H1.32262V9H0.265803ZM18.6216 4.63636C18.6216 5.55682 18.4554 6.35227 18.123 7.02273C17.7907 7.69318 17.3347 8.21023 16.7551 8.57386C16.1756 8.9375 15.5137 9.11932 14.7694 9.11932C14.025 9.11932 13.3631 8.9375 12.7836 8.57386C12.204 8.21023 11.748 7.69318 11.4157 7.02273C11.0833 6.35227 10.9171 5.55682 10.9171 4.63636C10.9171 3.71591 11.0833 2.92045 11.4157 2.25C11.748 1.57955 12.204 1.0625 12.7836 0.698864C13.3631 0.335227 14.025 0.153409 14.7694 0.153409C15.5137 0.153409 16.1756 0.335227 16.7551 0.698864C17.3347 1.0625 17.7907 1.57955 18.123 2.25C18.4554 2.92045 18.6216 3.71591 18.6216 4.63636ZM17.5989 4.63636C17.5989 3.88068 17.4725 3.2429 17.2196 2.72301C16.9696 2.20312 16.6301 1.80966 16.2012 1.54261C15.775 1.27557 15.2978 1.14205 14.7694 1.14205C14.2409 1.14205 13.7623 1.27557 13.3333 1.54261C12.9071 1.80966 12.5676 2.20312 12.3148 2.72301C12.0648 3.2429 11.9398 3.88068 11.9398 4.63636C11.9398 5.39205 12.0648 6.02983 12.3148 6.54972C12.5676 7.0696 12.9071 7.46307 13.3333 7.73011C13.7623 7.99716 14.2409 8.13068 14.7694 8.13068C15.2978 8.13068 15.775 7.99716 16.2012 7.73011C16.6301 7.46307 16.9696 7.0696 17.2196 6.54972C17.4725 6.02983 17.5989 5.39205 17.5989 4.63636ZM23.7736 9V0.272727H26.7225C27.4043 0.272727 27.964 0.389204 28.4015 0.622159C28.839 0.852272 29.1628 1.16903 29.373 1.57244C29.5833 1.97585 29.6884 2.43466 29.6884 2.94886C29.6884 3.46307 29.5833 3.91903 29.373 4.31676C29.1628 4.71449 28.8404 5.02699 28.4057 5.25426C27.9711 5.47869 27.4157 5.59091 26.7395 5.59091H24.3532V4.63636H26.7054C27.1713 4.63636 27.5463 4.56818 27.8304 4.43182C28.1174 4.29545 28.3248 4.10227 28.4526 3.85227C28.5833 3.59943 28.6486 3.2983 28.6486 2.94886C28.6486 2.59943 28.5833 2.29403 28.4526 2.03267C28.3219 1.77131 28.1131 1.5696 27.8262 1.42756C27.5392 1.28267 27.16 1.21023 26.6884 1.21023H24.8304V9H23.7736ZM27.8816 5.07955L30.0293 9H28.802L26.6884 5.07955H27.8816ZM34.3471 1.21023V0.272727H40.8926V1.21023H38.1483V9H37.0914V1.21023H34.3471ZM46.9554 0.272727V9H45.8986V0.272727H46.9554ZM52.4494 9V0.272727H57.6824V1.21023H53.5062V4.15909H57.2903V5.09659H53.5062V9H52.4494ZM62.1174 0.272727H63.3276L65.748 4.34659H65.8503L68.2708 0.272727H69.481L66.3276 5.40341V9H65.2708V5.40341L62.1174 0.272727Z" fill="white"/>
</svg>
