<?xml version="1.0" encoding="utf-8"?>
<!-- Generator: Adobe Illustrator 27.5.0, SVG Export Plug-In . SVG Version: 6.00 Build 0)  -->
<svg version="1.1" xmlns="http://www.w3.org/2000/svg" xmlns:xlink="http://www.w3.org/1999/xlink" x="0px" y="0px"
	 viewBox="0 0 500 500" style="enable-background:new 0 0 500 500;" xml:space="preserve">
<g id="Background_Complete">
	<g>
		<rect y="382.398" style="fill:#EBEBEB;" width="500" height="0.25"/>
		<rect x="416.779" y="398.494" style="fill:#EBEBEB;" width="33.122" height="0.25"/>
		<rect x="322.527" y="401.208" style="fill:#EBEBEB;" width="8.693" height="0.25"/>
		<rect x="396.586" y="389.208" style="fill:#EBEBEB;" width="19.192" height="0.25"/>
		<rect x="52.459" y="390.888" style="fill:#EBEBEB;" width="43.193" height="0.25"/>
		<rect x="104.556" y="390.888" style="fill:#EBEBEB;" width="6.333" height="0.25"/>
		<rect x="131.471" y="395.111" style="fill:#EBEBEB;" width="93.676" height="0.25"/>
		<path style="fill:#EBEBEB;" d="M237.014,337.8H43.915c-3.147,0-5.708-2.561-5.708-5.708V60.66c0-3.147,2.561-5.708,5.708-5.708
			h193.099c3.146,0,5.707,2.561,5.707,5.708v271.432C242.721,335.239,240.16,337.8,237.014,337.8z M43.915,55.203
			c-3.01,0-5.458,2.448-5.458,5.458v271.432c0,3.01,2.448,5.458,5.458,5.458h193.099c3.009,0,5.457-2.448,5.457-5.458V60.66
			c0-3.009-2.448-5.458-5.457-5.458H43.915z"/>
		<path style="fill:#EBEBEB;" d="M453.31,337.8H260.212c-3.147,0-5.707-2.561-5.707-5.708V60.66c0-3.147,2.561-5.708,5.707-5.708
			H453.31c3.148,0,5.708,2.561,5.708,5.708v271.432C459.019,335.239,456.458,337.8,453.31,337.8z M260.212,55.203
			c-3.009,0-5.457,2.448-5.457,5.458v271.432c0,3.01,2.448,5.458,5.457,5.458H453.31c3.01,0,5.458-2.448,5.458-5.458V60.66
			c0-3.009-2.448-5.458-5.458-5.458H260.212z"/>
	</g>
	<g>
		<rect x="416.046" y="113.722" style="fill:#E0E0E0;" width="5.237" height="110.175"/>
		<g>
			
				<rect x="318.642" y="113.722" transform="matrix(-1 -1.224647e-16 1.224647e-16 -1 736.902 337.6195)" style="fill:#E0E0E0;" width="99.618" height="110.175"/>
			
				<rect x="315.461" y="113.722" transform="matrix(-1 -1.224647e-16 1.224647e-16 -1 734.2441 337.6195)" style="fill:#F0F0F0;" width="103.321" height="110.175"/>
			
				<rect x="319.832" y="117.237" transform="matrix(-1 -1.224647e-16 1.224647e-16 -1 734.4088 336.0715)" style="fill:#FFFFFF;" width="94.745" height="101.599"/>
			
				<rect x="319.832" y="117.237" transform="matrix(-1 -1.224647e-16 1.224647e-16 -1 642.4039 336.0715)" style="fill:#E0E0E0;" width="2.74" height="101.599"/>
			
				<rect x="367.179" y="145.396" transform="matrix(6.123234e-17 -1 1 6.123234e-17 176.8828 560.2158)" style="fill:#E0E0E0;" width="2.74" height="92.541"/>
			
				<rect x="319.832" y="185.697" transform="matrix(-1 -1.224647e-16 1.224647e-16 -1 735.8783 375.9937)" style="fill:#F0F0F0;" width="96.214" height="4.6"/>
		</g>
		<g>
			<rect x="66.403" y="183.074" style="fill:#F0F0F0;" width="156.536" height="198.22"/>
			<g>
				<rect x="71.936" y="190.298" style="fill:#E0E0E0;" width="145.47" height="42.387"/>
				<rect x="71.936" y="197.16" style="fill:#EBEBEB;" width="8.264" height="35.525"/>
				<rect x="111.893" y="197.16" style="fill:#EBEBEB;" width="8.264" height="35.525"/>
				
					<rect x="160.332" y="196.717" transform="matrix(0.9855 -0.1698 0.1698 0.9855 -34.0374 31.0482)" style="fill:#EBEBEB;" width="8.264" height="35.525"/>
				<rect x="82.175" y="201.842" style="fill:#EBEBEB;" width="8.264" height="30.843"/>
				<rect x="101.169" y="201.842" style="fill:#EBEBEB;" width="8.264" height="30.843"/>
				<rect x="149.112" y="201.842" style="fill:#EBEBEB;" width="8.264" height="30.843"/>
				
					<rect x="126.191" y="201.313" transform="matrix(0.9762 -0.2169 0.2169 0.9762 -43.9098 33.4291)" style="fill:#EBEBEB;" width="8.264" height="30.843"/>
				<rect x="93.452" y="195.397" style="fill:#EBEBEB;" width="4.132" height="37.289"/>
				<rect x="142.605" y="195.397" style="fill:#EBEBEB;" width="4.132" height="37.289"/>
			</g>
			<g>
				
					<rect x="71.936" y="239.397" transform="matrix(-1 -1.224647e-16 1.224647e-16 -1 289.3409 521.1803)" style="fill:#E0E0E0;" width="145.47" height="42.387"/>
				
					<rect x="209.142" y="246.259" transform="matrix(-1 -1.224647e-16 1.224647e-16 -1 426.5469 528.0422)" style="fill:#EBEBEB;" width="8.264" height="35.525"/>
				
					<rect x="169.184" y="246.259" transform="matrix(-1 -1.224647e-16 1.224647e-16 -1 346.6312 528.0422)" style="fill:#EBEBEB;" width="8.264" height="35.525"/>
				
					<rect x="120.745" y="245.815" transform="matrix(-0.9855 -0.1698 0.1698 -0.9855 203.1731 544.5348)" style="fill:#EBEBEB;" width="8.264" height="35.525"/>
				
					<rect x="198.902" y="250.94" transform="matrix(-1 -1.224647e-16 1.224647e-16 -1 406.068 532.7237)" style="fill:#EBEBEB;" width="8.264" height="30.843"/>
				
					<rect x="179.908" y="250.94" transform="matrix(-1 -1.224647e-16 1.224647e-16 -1 368.0802 532.7237)" style="fill:#EBEBEB;" width="8.264" height="30.843"/>
				
					<rect x="131.965" y="250.94" transform="matrix(-1 -1.224647e-16 1.224647e-16 -1 272.1946 532.7237)" style="fill:#EBEBEB;" width="8.264" height="30.843"/>
				
					<rect x="154.886" y="250.411" transform="matrix(-0.9762 -0.2169 0.2169 -0.9762 256.5877 559.8295)" style="fill:#EBEBEB;" width="8.264" height="30.843"/>
				
					<rect x="191.757" y="244.495" transform="matrix(-1 -1.224647e-16 1.224647e-16 -1 387.645 526.2785)" style="fill:#EBEBEB;" width="4.132" height="37.289"/>
				
					<rect x="142.605" y="244.495" transform="matrix(-1 -1.224647e-16 1.224647e-16 -1 289.3408 526.2785)" style="fill:#EBEBEB;" width="4.132" height="37.289"/>
				<rect x="71.936" y="246.259" style="fill:#EBEBEB;" width="8.264" height="35.525"/>
				<rect x="82.175" y="250.94" style="fill:#EBEBEB;" width="8.264" height="30.843"/>
				<rect x="101.169" y="250.94" style="fill:#EBEBEB;" width="8.264" height="30.843"/>
				<rect x="93.452" y="244.495" style="fill:#EBEBEB;" width="4.132" height="37.289"/>
			</g>
			<g>
				<rect x="71.936" y="288.495" style="fill:#E0E0E0;" width="145.47" height="42.387"/>
				<g>
					<rect x="155.43" y="295.357" style="fill:#EBEBEB;" width="8.264" height="35.525"/>
					
						<rect x="203.869" y="294.913" transform="matrix(0.9855 -0.1698 0.1698 0.9855 -50.0824 39.869)" style="fill:#EBEBEB;" width="8.264" height="35.525"/>
					<rect x="125.712" y="300.039" style="fill:#EBEBEB;" width="8.264" height="30.843"/>
					<rect x="144.706" y="300.039" style="fill:#EBEBEB;" width="8.264" height="30.843"/>
					<rect x="192.649" y="300.039" style="fill:#EBEBEB;" width="8.264" height="30.843"/>
					
						<rect x="169.728" y="299.509" transform="matrix(0.9762 -0.2169 0.2169 0.9762 -64.1727 45.2102)" style="fill:#EBEBEB;" width="8.264" height="30.843"/>
					<rect x="136.989" y="293.593" style="fill:#EBEBEB;" width="4.132" height="37.289"/>
					<rect x="186.141" y="293.593" style="fill:#EBEBEB;" width="4.132" height="37.289"/>
					
						<rect x="108.799" y="294.913" transform="matrix(0.9855 -0.1698 0.1698 0.9855 -51.4642 23.7228)" style="fill:#EBEBEB;" width="8.264" height="35.525"/>
					<rect x="97.578" y="300.039" style="fill:#EBEBEB;" width="8.264" height="30.843"/>
					
						<rect x="74.657" y="299.509" transform="matrix(0.9762 -0.2169 0.2169 0.9762 -66.437 24.5887)" style="fill:#EBEBEB;" width="8.264" height="30.843"/>
					<rect x="91.071" y="293.593" style="fill:#EBEBEB;" width="4.132" height="37.289"/>
				</g>
			</g>
		</g>
		<g>
			<path style="fill:#E6E6E6;" d="M318.549,262.976h88.214c9.568,0,17.325,7.757,17.325,17.325v68.884H301.224v-68.884
				C301.224,270.733,308.981,262.976,318.549,262.976z"/>
			<path style="fill:#E0E0E0;" d="M275.142,314.032h15.786c5.686,0,10.295,4.609,10.295,10.295v56.967h-36.376v-56.967
				C264.847,318.641,269.457,314.032,275.142,314.032z"/>
			<path style="fill:#EBEBEB;" d="M275.142,314.032h0.334c5.686,0,10.295,4.609,10.295,10.295v56.967h-20.924v-56.967
				C264.847,318.641,269.457,314.032,275.142,314.032z"/>
			<rect x="290.177" y="355.126" style="fill:#E6E6E6;" width="121.063" height="26.168"/>
			<path style="fill:#F5F5F5;" d="M290.005,331.194h116.753c5.781,0,10.467,4.686,10.467,10.467v6.52
				c0,5.781-4.686,10.467-10.467,10.467H290.005c-5.781,0-10.467-4.686-10.467-10.467v-6.52
				C279.538,335.88,284.224,331.194,290.005,331.194z"/>
			<path style="fill:#E0E0E0;enable-background:new    ;" d="M392.086,331.194h14.481c5.781,0,10.467,4.686,10.467,10.467v6.52
				c0,5.781-4.686,10.467-10.467,10.467h-14.481c-5.781,0-10.467-4.686-10.467-10.467v-6.52
				C381.619,335.88,386.305,331.194,392.086,331.194z"/>
			<path style="fill:#E0E0E0;" d="M408.129,314.032h15.786c5.686,0,10.295,4.609,10.295,10.295v56.967h-36.376v-56.967
				C397.833,318.641,402.443,314.032,408.129,314.032z"/>
			<path style="fill:#F0F0F0;" d="M408.129,314.032h0.333c5.686,0,10.295,4.609,10.295,10.295v56.967h-20.924v-56.967
				C397.833,318.641,402.443,314.032,408.129,314.032z"/>
		</g>
		<g>
			
				<ellipse transform="matrix(0.9871 -0.1602 0.1602 0.9871 -20.0089 25.2703)" style="fill:#E0E0E0;" cx="146.736" cy="136.742" rx="23.554" ry="23.554"/>
			
				<ellipse transform="matrix(0.9871 -0.1602 0.1602 0.9871 -20.0089 25.2703)" style="fill:#F0F0F0;" cx="146.736" cy="136.742" rx="20.027" ry="20.027"/>
			
				<polyline style="fill:#F0F0F0;stroke:#E0E0E0;stroke-width:2;stroke-linecap:round;stroke-linejoin:round;stroke-miterlimit:10;" points="
				145.792,150.48 145.792,136.48 136.514,141.73 			"/>
		</g>
	</g>
</g>
<g id="Background_Simple" style="display:none;">
	<g style="display:inline;">
		<path style="fill:#407BFF;" d="M304.262,207.215c-65.107-18.215-89.103-159.036-184.521-82.947
			c-67.694,53.981-25.078,187.11,60.226,172.24c51.632-9,43.647-10.016,87.629,15.561c44.572,25.92,93.539,39.115,140.647-5.94
			c24.378-23.316,33.607-80.494,9.548-110.288C387.703,158.581,344.036,218.343,304.262,207.215z"/>
		<path style="opacity:0.9;fill:#FFFFFF;" d="M304.262,207.215c-65.107-18.215-89.103-159.036-184.521-82.947
			c-67.694,53.981-25.078,187.11,60.226,172.24c51.632-9,43.647-10.016,87.629,15.561c44.572,25.92,93.539,39.115,140.647-5.94
			c24.378-23.316,33.607-80.494,9.548-110.288C387.703,158.581,344.036,218.343,304.262,207.215z"/>
	</g>
</g>
<g id="Shadow_1_">
	<ellipse id="_x3C_Path_x3E__359_" style="fill:#F5F5F5;" cx="250" cy="416.238" rx="193.889" ry="11.323"/>
</g>
<g id="Plant">
	<g>
		<g>
			<g>
				<g>
					<g>
						<g>
							<g>
								<g>
									<g>
										<path style="fill:#407BFF;" d="M119.997,383.882c-0.015,0-0.03-0.001-0.046-0.003c-0.201-0.025-0.344-0.209-0.319-0.41
											c0.007-0.066,0.055-0.783,0.111-2.021c0.096-1.851,0.249-5.726,0.194-10.914c0.005-0.093,0.001-0.155-0.002-0.223
											c-0.07-5.795-0.38-11.498-0.922-16.961c-0.503-5.094-1.221-10.04-2.135-14.703c-0.836-4.219-1.836-8.218-2.971-11.885
											c-0.004-0.01-0.008-0.021-0.011-0.032l-0.001,0c-0.179-0.575-0.366-1.15-0.553-1.725
											c-0.157-0.467-0.315-0.937-0.481-1.406c-0.426-1.217-0.811-2.382-1.146-3.462c-0.747-2.378-1.404-4.752-1.955-7.056
											c-0.337-1.383-0.635-2.745-0.886-4.044c-1.004-5.081-1.573-10.118-1.691-14.971c-0.05-1.979-0.021-3.954,0.085-5.87
											c0.117-2.089,0.334-4.108,0.643-6c0.026-0.142,0.046-0.273,0.065-0.399l0.032-0.186c0.002-0.089,0.035-0.177,0.102-0.247
											c0.14-0.147,0.372-0.152,0.519-0.012c0.096,0.092,0.132,0.236,0.105,0.364l0.001,0l-0.034,0.191
											c-0.02,0.133-0.041,0.27-0.067,0.413c-0.305,1.861-0.518,3.853-0.635,5.917c-0.105,1.896-0.133,3.851-0.084,5.81
											c0.118,4.812,0.682,9.807,1.678,14.849c0.249,1.289,0.545,2.639,0.879,4.012c0.547,2.289,1.2,4.647,1.942,7.01
											c0.333,1.074,0.715,2.23,1.138,3.438c0.167,0.472,0.326,0.946,0.485,1.419c0.188,0.578,0.375,1.153,0.555,1.728
											c0.004,0.011,0.008,0.022,0.011,0.033h0c1.144,3.693,2.151,7.72,2.992,11.968c0.919,4.686,1.64,9.655,2.145,14.772
											c0.544,5.484,0.855,11.208,0.925,17.013c0.004,0.082,0.007,0.166,0.002,0.26c0.057,5.183-0.097,9.076-0.194,10.933
											c-0.057,1.26-0.108,2.011-0.116,2.077C120.338,383.746,120.179,383.882,119.997,383.882z"/>
									</g>
								</g>
								<g>
									<g>
										<g>
											<path style="fill:#407BFF;" d="M108.357,281.74c0.007-0.016,0.007-0.016,0.015-0.017
												c0.007-0.016,0.007-0.016,0.015-0.017c0.615-0.595,1.299-1.112,2.026-1.55c0.799-0.465,1.659-0.844,2.558-1.094"/>
											<path style="fill:#407BFF;" d="M108.356,282.105c-0.049,0-0.098-0.01-0.146-0.03c-0.185-0.081-0.271-0.295-0.19-0.48
												c0.018-0.041,0.044-0.079,0.077-0.113c0.011-0.013,0.023-0.025,0.036-0.037l-0.001-0.001
												c0.62-0.6,1.324-1.138,2.092-1.601c0.866-0.504,1.755-0.884,2.648-1.133c0.194-0.054,0.398,0.06,0.452,0.255
												c0.054,0.195-0.06,0.398-0.255,0.452c-0.833,0.233-1.664,0.588-2.471,1.058c-0.716,0.431-1.376,0.936-1.956,1.497
												c-0.003,0.003-0.006,0.005-0.008,0.008C108.565,282.059,108.462,282.105,108.356,282.105z"/>
										</g>
									</g>
								</g>
								<g>
									<g>
										<path style="fill:#407BFF;" d="M107.636,288.585c-0.083,0-0.165-0.027-0.234-0.085l-2.472-2.05
											c-0.156-0.13-0.177-0.361-0.048-0.517c0.129-0.155,0.36-0.178,0.517-0.048l2.472,2.05
											c0.156,0.129,0.178,0.361,0.048,0.517C107.846,288.54,107.742,288.585,107.636,288.585z"/>
									</g>
								</g>
								<g>
									<g>
										<path style="fill:#407BFF;" d="M112.066,320.435c-0.196,0-0.359-0.184-0.367-0.382l0-0.008
											c0.103-0.732,0.27-1.381,0.502-2c0.32-0.908,0.779-1.771,1.361-2.558c0.424-0.576,0.922-1.114,1.48-1.599
											c0.152-0.132,0.385-0.117,0.518,0.037c0.133,0.153,0.117,0.385-0.037,0.518c-0.517,0.449-0.978,0.947-1.371,1.481
											c-0.54,0.728-0.964,1.526-1.262,2.372c-0.216,0.577-0.37,1.176-0.462,1.788c0.009,0.203-0.146,0.343-0.349,0.352
											C112.075,320.435,112.071,320.435,112.066,320.435z"/>
									</g>
								</g>
								<g>
									<g>
										<path style="fill:#407BFF;" d="M114.259,327.016c-0.141,0-0.275-0.081-0.336-0.218c-0.688-1.544-2.056-2.78-3.66-3.308
											c-0.192-0.063-0.297-0.271-0.234-0.464c0.063-0.193,0.271-0.298,0.464-0.234c1.798,0.592,3.331,1.978,4.101,3.707
											c0.083,0.185-0.001,0.402-0.186,0.485C114.36,327.006,114.309,327.016,114.259,327.016z"/>
									</g>
								</g>
								<g>
									<g>
										<path style="fill:#407BFF;" d="M119.849,359.694c-0.837-0.925-1.599-4.552-2.009-6.501
											c-0.098-0.466-0.181-0.863-0.249-1.15"/>
										<path style="fill:#407BFF;" d="M119.849,360.061c-0.1,0-0.2-0.041-0.272-0.12c-0.834-0.921-1.519-3.926-2.096-6.67
											c-0.097-0.464-0.18-0.858-0.247-1.142c-0.047-0.197,0.075-0.395,0.272-0.442c0.196-0.052,0.395,0.075,0.442,0.272
											c0.069,0.288,0.153,0.689,0.251,1.159c0.374,1.779,1.152,5.479,1.922,6.329c0.136,0.151,0.125,0.383-0.026,0.518
											C120.026,360.03,119.937,360.061,119.849,360.061z"/>
									</g>
								</g>
							</g>
							<g>
								<path style="fill:#407BFF;" d="M110.122,313.396c-0.191,0-0.352-0.147-0.366-0.34c-0.044-0.6-0.983-14.75,6.824-20.409
									c0.165-0.119,0.394-0.082,0.513,0.082c0.119,0.164,0.083,0.394-0.082,0.513c-7.475,5.418-6.533,19.618-6.523,19.761
									c0.015,0.202-0.137,0.378-0.34,0.393C110.14,313.396,110.131,313.396,110.122,313.396z"/>
							</g>
							<g>
								<path style="fill:#407BFF;" d="M110.771,344.175c-0.896,3.426,6.671,9.543,6.671,9.543s9.592-1.629,10.488-5.056
									c0.896-3.427-1.79-8.851-6.528-10.09C116.664,337.333,111.667,340.749,110.771,344.175z"/>
								<path style="fill:#407BFF;" d="M100.887,303.502c1.082,3.55,8.093,5.798,8.093,5.798s4.566-5.776,3.484-9.326
									c-1.082-3.55-5.069-7.339-8.266-6.365C101.001,294.584,99.805,299.953,100.887,303.502z"/>
								<path style="fill:#407BFF;" d="M119.577,314.205c-0.886,0.72-1.799,1.455-2.887,1.802c-1.088,0.347-2.404,0.222-3.19-0.606
									c-0.974-1.026-0.798-2.691-0.27-4.004c1.045-2.602,5.125-7.117,8.458-6.019C126.501,306.962,121.62,312.545,119.577,314.205
									z"/>
								<path style="fill:#407BFF;" d="M110.174,321.129c0.655,0.742,1.357,1.684,1.058,2.627c-0.265,0.837-1.261,1.259-2.134,1.166
									c-0.873-0.093-1.65-0.574-2.393-1.043c-1.722-1.087-5.254-3.371-3.167-5.745
									C105.707,315.669,108.795,319.565,110.174,321.129z"/>
								<path style="fill:#407BFF;" d="M122.733,288.11c0.719,0.048,1.464,0.495,1.617,1.198c0.179,0.823-0.477,1.578-1.12,2.121
									c-1.603,1.351-6.439,5.021-7.698,1.741C114.342,290.07,120.518,287.963,122.733,288.11z"/>
								<g>
									<path style="fill:#407BFF;" d="M113.06,277.561c1.033,0.053,2.043-0.366,3.078-0.345c1.034,0.02,2.215,0.8,2.03,1.818
										c-0.171,0.941-1.315,1.303-2.266,1.405c-1.622,0.174-3.267,0.132-4.879-0.123c-0.374-0.059-0.783-0.151-1.009-0.455
										c-0.444-0.596,0.183-1.448,0.884-1.697c0.7-0.249,1.505-0.211,2.133-0.608L113.06,277.561z"/>
								</g>
								<g>
									<path style="fill:#407BFF;" d="M103.315,285.082c-1.032,0.075-2.051-0.321-3.085-0.279
										c-1.034,0.043-2.198,0.848-1.991,1.861c0.191,0.937,1.343,1.275,2.296,1.356c1.626,0.139,3.269,0.062,4.875-0.228
										c0.373-0.067,0.779-0.168,0.999-0.477c0.431-0.605-0.215-1.444-0.92-1.677c-0.706-0.233-1.509-0.179-2.146-0.562
										L103.315,285.082z"/>
								</g>
							</g>
						</g>
						<g>
							<path style="fill:#407BFF;" d="M108.071,283.112c-0.009,0-0.018,0-0.026-0.001c-0.202-0.014-0.354-0.19-0.34-0.392
								c0.142-2.01-0.075-3.941-0.454-4.051c-0.195-0.057-0.307-0.26-0.25-0.455c0.057-0.194,0.258-0.308,0.455-0.25
								c1.169,0.34,1.075,3.475,0.981,4.808C108.423,282.965,108.262,283.112,108.071,283.112z"/>
						</g>
						<g>
							<path style="fill:#407BFF;" d="M108.753,278.397c-0.685-1.373-1.425-2.81-2.705-3.657c-1.28-0.847-3.27-0.828-4.118,0.451
								c-0.949,1.43,0.154,3.491,1.733,4.162c1.579,0.671,3.383,0.369,5.07,0.056c0.003-0.253,0.005-0.505,0.008-0.758
								L108.753,278.397z"/>
						</g>
					</g>
				</g>
			</g>
			<g>
				<g>
					<g>
						<g>
							<g>
								<g>
									<g>
										<g>
											<g>
												<g>
													<g>
														<path style="fill:#407BFF;" d="M121.129,396.256c-0.022,0-0.045-0.002-0.068-0.007
															c-0.199-0.037-0.331-0.229-0.293-0.428c2.459-13.127,9.929-18.854,10.005-18.911c0.162-0.121,0.392-0.087,0.514,0.074
															c0.121,0.162,0.089,0.392-0.073,0.514c-0.073,0.054-7.32,5.63-9.724,18.457
															C121.456,396.133,121.302,396.256,121.129,396.256z"/>
													</g>
													<g>
														<path style="fill:#407BFF;" d="M128.852,379.642c-0.15,0-0.29-0.092-0.345-0.24c-0.07-0.19,0.026-0.401,0.216-0.471
															c0.06-0.022,1.491-0.542,3.861-0.138c0.2,0.034,0.334,0.224,0.301,0.424c-0.034,0.199-0.224,0.336-0.423,0.3
															c-2.159-0.366-3.471,0.098-3.484,0.103C128.936,379.635,128.894,379.642,128.852,379.642z"/>
													</g>
													<g>
														<path style="fill:#407BFF;" d="M127.194,381.696c-0.194,0-0.356-0.152-0.366-0.349
															c-0.254-5.004,2.4-8.913,2.513-9.077c0.115-0.166,0.343-0.209,0.51-0.093c0.167,0.115,0.209,0.343,0.094,0.51
															c-0.026,0.039-2.625,3.875-2.384,8.623c0.01,0.202-0.146,0.375-0.348,0.385
															C127.207,381.696,127.201,381.696,127.194,381.696z"/>
													</g>
													<g>
														<path style="fill:#407BFF;" d="M124.565,385.989c-0.093,0-0.185-0.034-0.256-0.105
															c-0.145-0.141-0.148-0.374-0.006-0.519c0.086-0.089,2.148-2.152,5.079-1.238c0.193,0.061,0.301,0.267,0.241,0.46
															c-0.061,0.194-0.266,0.301-0.46,0.241c-2.506-0.785-4.316,1.03-4.334,1.05
															C124.756,385.952,124.66,385.989,124.565,385.989z"/>
													</g>
													<g>
														<path style="fill:#407BFF;" d="M123.22,388.964c-0.137,0-0.268-0.078-0.331-0.209
															c-0.05-0.104-1.212-2.596-0.779-6.216c0.024-0.201,0.202-0.348,0.408-0.32c0.201,0.024,0.345,0.206,0.321,0.408
															c-0.407,3.397,0.702,5.789,0.713,5.813c0.087,0.184,0.008,0.402-0.174,0.489
															C123.327,388.952,123.273,388.964,123.22,388.964z"/>
													</g>
												</g>
											</g>
										</g>
									</g>
								</g>
								<g>
									<g>
										<path style="fill:#407BFF;" d="M121.884,391.935c0.037,0.058-0.272,0.337,0.779,0.405
											c2.589,0.167,7.157,0.117,8.808-2.079c2.358-3.135-3.288-2.985-2.79-4.734c0.498-1.749,6.615-0.155,7.727-2.642
											c1.112-2.487-3.292-2.108-3.125-3.397c0.167-1.29,4.852,0.506,6.301-2.125c1.449-2.631-2.558-1.305-1.934-2.395
											c0.624-1.089,5.629-5.564,3.517-6.643c-2.113-1.079-6.803,3.605-8.38,4.079c-1.578,0.474-2.085-4.25-4.132-2.726
											c-2.047,1.525-0.464,8.677-2.881,9.499c-1.8,0.612-0.882-1.914-3.124-1.873
											C119.603,377.359,118.894,387.313,121.884,391.935z"/>
									</g>
									<g style="opacity:0.3;">
										<path style="fill:#FFFFFF;" d="M121.884,391.935c0.037,0.058-0.272,0.337,0.779,0.405
											c2.589,0.167,7.157,0.117,8.808-2.079c2.358-3.135-3.288-2.985-2.79-4.734c0.498-1.749,6.615-0.155,7.727-2.642
											c1.112-2.487-3.292-2.108-3.125-3.397c0.167-1.29,4.852,0.506,6.301-2.125c1.449-2.631-2.558-1.305-1.934-2.395
											c0.624-1.089,5.629-5.564,3.517-6.643c-2.113-1.079-6.803,3.605-8.38,4.079c-1.578,0.474-2.085-4.25-4.132-2.726
											c-2.047,1.525-0.464,8.677-2.881,9.499c-1.8,0.612-0.882-1.914-3.124-1.873
											C119.603,377.359,118.894,387.313,121.884,391.935z"/>
									</g>
								</g>
							</g>
							<g>
								<g>
									<g>
										<path style="fill:#407BFF;" d="M120.847,396.576c-0.163,0-0.311-0.109-0.354-0.274
											c-2.877-10.92-10.407-17.787-10.483-17.855c-0.151-0.135-0.163-0.368-0.028-0.519c0.136-0.151,0.368-0.163,0.519-0.028
											c0.077,0.07,7.768,7.075,10.702,18.215c0.052,0.196-0.065,0.397-0.261,0.448
											C120.91,396.573,120.879,396.576,120.847,396.576z"/>
									</g>
									<g>
										<path style="fill:#407BFF;" d="M114.438,383.734c-0.024,0-0.048-0.002-0.073-0.007c-0.025-0.005-0.052-0.014-0.078-0.025
											l-0.045-0.017c-1.285-0.475-2.709-0.689-4.008-0.607c-0.198,0.014-0.377-0.141-0.39-0.343
											c-0.013-0.202,0.141-0.376,0.343-0.389c1.399-0.087,2.93,0.143,4.309,0.651c0.01,0.004,0.029,0.011,0.05,0.02
											c0.178,0.055,0.289,0.236,0.252,0.422C114.763,383.614,114.609,383.734,114.438,383.734z M114.547,383.016
											c0.03,0.013,0.063,0.027,0.076,0.035C114.6,383.037,114.574,383.025,114.547,383.016z M114.509,383.007
											c0,0,0.001,0,0.001,0C114.51,383.007,114.51,383.007,114.509,383.007z"/>
									</g>
									<g>
										<path style="fill:#407BFF;" d="M115.908,385.528c-0.006,0-0.012,0-0.018-0.001c-0.203-0.009-0.358-0.182-0.349-0.384
											c0.204-4.182-2.095-7.53-2.118-7.564c-0.116-0.166-0.076-0.395,0.091-0.511c0.165-0.115,0.395-0.076,0.511,0.09
											c0.101,0.144,2.467,3.58,2.25,8.02C116.265,385.375,116.103,385.528,115.908,385.528z"/>
									</g>
									<g>
										<path style="fill:#407BFF;" d="M117.447,387.927c-0.089,0-0.179-0.032-0.249-0.097c-0.064-0.059-1.601-1.446-3.796-0.764
											c-0.194,0.062-0.399-0.049-0.46-0.242c-0.06-0.193,0.048-0.399,0.242-0.459c2.61-0.814,4.438,0.857,4.515,0.928
											c0.148,0.138,0.156,0.369,0.018,0.518C117.644,387.887,117.546,387.927,117.447,387.927z"/>
									</g>
									<g>
										<path style="fill:#407BFF;" d="M119.44,391.904c-0.052,0-0.105-0.011-0.156-0.035c-0.183-0.086-0.262-0.305-0.176-0.488
											c0.01-0.021,0.982-2.14,0.618-5.123c-0.025-0.202,0.118-0.384,0.32-0.409c0.201-0.032,0.384,0.118,0.409,0.32
											c0.392,3.205-0.637,5.432-0.682,5.525C119.709,391.826,119.577,391.904,119.44,391.904z"/>
									</g>
								</g>
								<g>
									<path style="fill:#407BFF;" d="M120.645,394.722c-1.997,0.126-5.492-1.581-6.911-3.327
										c-1.44-1.773,2.435-0.804,1.979-2.225c-0.456-1.421-5.126-0.151-6.086-2.174c-0.961-2.023,2.463-1.698,2.282-2.745
										c-0.181-1.047-3.697-0.679-4.925-2.82c-1.228-2.141,1.927-1.05,1.401-1.936c-0.527-0.887-4.581-4.537-2.989-5.405
										c1.591-0.868,5.41,2.952,6.65,3.343c1.24,0.391,1.405-2.371,3.051-1.126c1.646,1.245,0.709,7.044,2.612,7.72
										c1.418,0.504,0.71-2.102,2.342-1.508C122.908,383.557,121.456,394.671,120.645,394.722z"/>
									<g style="opacity:0.2;">
										<path style="fill:#FFFFFF;" d="M120.645,394.722c-1.997,0.126-5.492-1.581-6.911-3.327
											c-1.44-1.773,2.435-0.804,1.979-2.225c-0.456-1.421-5.126-0.151-6.086-2.174c-0.961-2.023,2.463-1.698,2.282-2.745
											c-0.181-1.047-3.697-0.679-4.925-2.82c-1.228-2.141,1.927-1.05,1.401-1.936c-0.527-0.887-4.581-4.537-2.989-5.405
											c1.591-0.868,5.41,2.952,6.65,3.343c1.24,0.391,1.405-2.371,3.051-1.126c1.646,1.245,0.709,7.044,2.612,7.72
											c1.418,0.504,0.71-2.102,2.342-1.508C122.908,383.557,121.456,394.671,120.645,394.722z"/>
									</g>
								</g>
							</g>
						</g>
					</g>
				</g>
			</g>
		</g>
		<g>
			<path style="fill:#263238;" d="M136.599,398.599c0,9.679,4.271,17.526-17.526,17.526c-19.372,0-17.526-7.847-17.526-17.526
				c0-9.68,7.847-12.421,17.526-12.421S136.599,388.919,136.599,398.599z"/>
			<rect x="99.701" y="385.994" style="fill:#263238;" width="38.804" height="9.601"/>
			<rect x="99.701" y="385.994" style="opacity:0.2;fill:#FFFFFF;enable-background:new    ;" width="38.804" height="9.601"/>
		</g>
	</g>
</g>
<g id="Device">
	<g>
		<path style="fill:#407BFF;" d="M384.174,416.125H241.865c-5.351,0-9.688-4.338-9.688-9.688V135.001
			c0-5.351,4.338-9.688,9.688-9.688h142.308c5.351,0,9.688,4.338,9.688,9.688v271.435
			C393.862,411.787,389.525,416.125,384.174,416.125z"/>
		<path style="opacity:0.8;fill:#FFFFFF;" d="M384.174,416.125H241.865c-5.351,0-9.688-4.338-9.688-9.688V135.001
			c0-5.351,4.338-9.688,9.688-9.688h142.308c5.351,0,9.688,4.338,9.688,9.688v271.435
			C393.862,411.787,389.525,416.125,384.174,416.125z"/>
		<g>
			<path style="opacity:0.6;enable-background:new    ;" d="M312.995,131.762c0,1.143-0.927,2.069-2.069,2.069
				c-1.143,0-2.069-0.926-2.069-2.069c0-1.143,0.926-2.069,2.069-2.069C312.068,129.693,312.995,130.62,312.995,131.762z"/>
			<path style="opacity:0.6;enable-background:new    ;" d="M317.183,131.762c0,0.732-0.594,1.326-1.326,1.326
				c-0.732,0-1.326-0.593-1.326-1.326c0-0.732,0.594-1.326,1.326-1.326C316.59,130.437,317.183,131.03,317.183,131.762z"/>
		</g>
		<g>
			<path style="fill:#263238;" d="M388.406,135.055v270.807c0,2.227-1.79,3.958-4.018,3.958H241.223
				c-2.047,0-3.589-1.585-3.589-3.632V134.73c0-1.773,1.302-3.324,3.076-3.324H276.5c1.011,0,1.927,0.66,2.304,1.611l1.482,3.649
				c0.377,0.942,1.294,1.593,2.304,1.593h60.934c1.011,0,1.928-0.625,2.305-1.568l1.482-3.667c0.377-0.951,1.293-1.619,2.304-1.619
				h35.277C386.846,131.406,388.406,133.102,388.406,135.055z"/>
			<rect x="237.634" y="148.325" style="opacity:0.3;fill:#FFFFFF;enable-background:new    ;" width="150.772" height="243.545"/>
			<rect x="241.354" y="179.765" style="fill:#407BFF;enable-background:new    ;" width="143.332" height="208.657"/>
			<rect x="241.354" y="179.765" style="opacity:0.6;fill:#FFFFFF;enable-background:new    ;" width="143.332" height="208.657"/>
			<path style="fill:none;stroke:#FFFFFF;stroke-width:0.9313;stroke-miterlimit:10;" d="M314.207,402.739h-2.374
				c-0.995,0-1.803-0.807-1.803-1.803v-2.374c0-0.996,0.807-1.803,1.803-1.803h2.374c0.995,0,1.802,0.807,1.802,1.803v2.374
				C316.009,401.931,315.202,402.739,314.207,402.739z"/>
			<g>
				<circle style="fill:#407BFF;enable-background:new    ;" cx="313.02" cy="241.647" r="42.017"/>
				
					<path style="fill:none;stroke:#FFFFFF;stroke-width:3.7254;stroke-linecap:round;stroke-linejoin:round;stroke-miterlimit:10;" d="
					M313.019,279.007c-20.6,0-37.36-16.76-37.36-37.36c0-20.601,16.76-37.36,37.36-37.36c20.601,0,37.361,16.76,37.361,37.36
					C350.38,262.248,333.62,279.007,313.019,279.007z"/>
				
					<polyline style="fill:none;stroke:#FFFFFF;stroke-width:7.7222;stroke-linecap:round;stroke-linejoin:round;stroke-miterlimit:10;" points="
					292.125,237.132 308.61,256.555 333.915,226.74 				"/>
			</g>
			<g>
				<rect x="241.354" y="153.098" style="fill:#407BFF;enable-background:new    ;" width="143.332" height="24.563"/>
				<g>
					<path style="fill:#FFFFFF;" d="M377.765,161.189c0,0.607-0.492,1.099-1.099,1.099c-0.607,0-1.099-0.492-1.099-1.099
						c0-0.607,0.492-1.099,1.099-1.099C377.273,160.089,377.765,160.582,377.765,161.189z"/>
					<path style="fill:#FFFFFF;" d="M377.765,165.38c0,0.607-0.492,1.099-1.099,1.099c-0.607,0-1.099-0.492-1.099-1.099
						c0-0.607,0.492-1.099,1.099-1.099C377.273,164.281,377.765,164.773,377.765,165.38z"/>
					<path style="fill:#FFFFFF;" d="M377.765,169.571c0,0.607-0.492,1.099-1.099,1.099c-0.607,0-1.099-0.492-1.099-1.099
						c0-0.607,0.492-1.099,1.099-1.099C377.273,168.472,377.765,168.964,377.765,169.571z"/>
				</g>
			</g>
			<g>
				<path style="fill:#FFFFFF;" d="M283.806,168.428h-3.365l-0.663,1.557h-1.288l3.028-6.729h1.23l3.038,6.729h-1.307
					L283.806,168.428z M283.392,167.447l-1.269-2.941l-1.259,2.941H283.392z"/>
				<path style="fill:#FFFFFF;" d="M287.669,164.314h-2.23v-1.057h5.71v1.057h-2.23v5.672h-1.25V164.314z"/>
				<path style="fill:#FFFFFF;" d="M293.551,164.314h-2.23v-1.057h5.71v1.057h-2.23v5.672h-1.25V164.314z"/>
				<path style="fill:#FFFFFF;" d="M303.02,168.938v1.048h-5.047v-6.729h4.912v1.048h-3.663v1.749h3.249v1.028h-3.249v1.855H303.02z
					"/>
				<path style="fill:#FFFFFF;" d="M310.392,163.256v6.729h-1.028l-3.711-4.557v4.557h-1.24v-6.729h1.028l3.711,4.557v-4.557
					H310.392z"/>
				<path style="fill:#FFFFFF;" d="M312.198,163.256h2.941c2.182,0,3.672,1.346,3.672,3.364c0,2.019-1.49,3.365-3.672,3.365h-2.941
					V163.256z M315.082,168.928c1.5,0,2.471-0.913,2.471-2.307c0-1.394-0.971-2.307-2.471-2.307h-1.634v4.614H315.082z"/>
				<path style="fill:#FFFFFF;" d="M324.406,168.428h-3.365l-0.663,1.557h-1.288l3.028-6.729h1.23l3.038,6.729h-1.307
					L324.406,168.428z M323.992,167.447l-1.269-2.941l-1.259,2.941H323.992z"/>
				<path style="fill:#FFFFFF;" d="M333.219,163.256v6.729h-1.028l-3.711-4.557v4.557h-1.24v-6.729h1.028l3.711,4.557v-4.557
					H333.219z"/>
				<path style="fill:#FFFFFF;" d="M334.545,166.621c0-2.009,1.538-3.46,3.605-3.46c1.096,0,2.038,0.394,2.663,1.124l-0.807,0.76
					c-0.49-0.529-1.096-0.788-1.798-0.788c-1.394,0-2.403,0.98-2.403,2.365c0,1.384,1.009,2.365,2.403,2.365
					c0.702,0,1.308-0.259,1.798-0.798l0.807,0.769c-0.625,0.731-1.567,1.125-2.672,1.125
					C336.083,170.081,334.545,168.63,334.545,166.621z"/>
				<path style="fill:#FFFFFF;" d="M347.06,168.938v1.048h-5.047v-6.729h4.912v1.048h-3.663v1.749h3.249v1.028h-3.249v1.855H347.06z
					"/>
			</g>
			<g>
				<path style="fill:#263238;" d="M277.178,293.389c0-2.335,1.787-4.022,4.189-4.022c1.273,0,2.368,0.458,3.094,1.308l-0.938,0.882
					c-0.569-0.614-1.273-0.916-2.088-0.916c-1.62,0-2.793,1.14-2.793,2.748s1.173,2.748,2.793,2.748
					c0.815,0,1.519-0.302,2.088-0.928l0.938,0.893c-0.726,0.849-1.821,1.307-3.105,1.307
					C278.965,297.409,277.178,295.723,277.178,293.389z"/>
				<path style="fill:#263238;" d="M285.135,293.389c0-2.313,1.787-4.022,4.211-4.022s4.211,1.698,4.211,4.022
					c0,2.323-1.787,4.021-4.211,4.021S285.135,295.7,285.135,293.389z M292.094,293.389c0-1.598-1.173-2.748-2.748-2.748
					c-1.575,0-2.748,1.15-2.748,2.748c0,1.597,1.173,2.748,2.748,2.748C290.921,296.137,292.094,294.985,292.094,293.389z"/>
				<path style="fill:#263238;" d="M302.051,289.479v7.818h-1.195l-4.312-5.294v5.294h-1.441v-7.818h1.195l4.312,5.294v-5.294
					H302.051z"/>
				<path style="fill:#263238;" d="M305.608,290.696v2.38h3.775v1.228h-3.775v2.993h-1.452v-7.818h5.708v1.217H305.608z"/>
				<path style="fill:#263238;" d="M311.275,289.479h1.452v7.818h-1.452V289.479z"/>
				<path style="fill:#263238;" d="M319.956,297.298l-1.597-2.29c-0.101,0.012-0.201,0.012-0.302,0.012h-1.765v2.278h-1.452v-7.818
					h3.217c2.055,0,3.329,1.05,3.329,2.781c0,1.184-0.603,2.055-1.664,2.468l1.798,2.569H319.956z M317.99,290.708h-1.698v3.116
					h1.698c1.273,0,1.932-0.581,1.932-1.563C319.922,291.277,319.264,290.708,317.99,290.708z"/>
				<path style="fill:#263238;" d="M330.192,297.298l-0.011-5.183l-2.569,4.289h-0.648l-2.569-4.222v5.115h-1.385v-7.818h1.195
					l3.105,5.183l3.049-5.183h1.195l0.011,7.818H330.192z"/>
				<path style="fill:#263238;" d="M339.547,296.08v1.218h-5.864v-7.818h5.707v1.217h-4.255v2.033h3.775v1.195h-3.775v2.155H339.547
					z"/>
				<path style="fill:#263238;" d="M341.171,289.479h3.418c2.536,0,4.267,1.564,4.267,3.909s-1.731,3.909-4.267,3.909h-3.418
					V289.479z M344.522,296.069c1.742,0,2.871-1.061,2.871-2.681c0-1.62-1.128-2.681-2.871-2.681h-1.899v5.361H344.522z"/>
			</g>
			<path style="fill:#407BFF;enable-background:new    ;" d="M377.957,320.316H248.082c-2.427,0-4.395,1.968-4.395,4.395v63.71
				h138.665v-63.71C382.352,322.284,380.384,320.316,377.957,320.316z"/>
			<path style="opacity:0.2;fill:#FFFFFF;enable-background:new    ;" d="M377.957,320.316H248.082
				c-2.427,0-4.395,1.968-4.395,4.395v63.71h138.665v-63.71C382.352,322.284,380.384,320.316,377.957,320.316z"/>
			<g>
				<g>
					<path style="opacity:0.5;fill:#FFFFFF;" d="M287.747,347.774c0,6.221-2.896,11.772-7.413,15.358
						c-0.112,0.102-0.224,0.195-0.345,0.279c-1.285,0.978-2.691,1.807-4.2,2.44c-2.357,1.006-4.955,1.565-7.684,1.565
						c-1.229,0-2.44-0.112-3.604-0.335c-0.177-0.028-0.363-0.065-0.54-0.112c-0.615-0.121-1.22-0.279-1.816-0.475
						c-1.937-0.615-3.753-1.527-5.374-2.682c-0.177-0.121-0.345-0.242-0.512-0.372c-4.74-3.586-7.795-9.267-7.795-15.665
						c0-10.85,8.792-19.642,19.642-19.642C278.956,328.131,287.747,336.923,287.747,347.774z"/>
					<path style="fill:#FFFFFF;" d="M268.105,366.484c-1.173,0-2.327-0.107-3.429-0.318c-0.176-0.028-0.331-0.059-0.479-0.098
						c-0.626-0.125-1.2-0.275-1.762-0.459c-1.84-0.583-3.561-1.443-5.123-2.556c-0.177-0.121-0.329-0.231-0.482-0.349
						c-4.728-3.577-7.435-9.016-7.435-14.93c0-10.317,8.394-18.711,18.711-18.711c10.317,0,18.711,8.394,18.711,18.711
						c0,5.734-2.574,11.066-7.061,14.629c-0.129,0.114-0.209,0.183-0.296,0.243c-1.29,0.98-2.634,1.761-4.031,2.348
						C273.108,365.983,270.646,366.484,268.105,366.484z"/>
					<g>
						<path style="fill:#263238;" d="M262.145,366.494c-1.937-0.615-3.753-1.527-5.374-2.682c1.611,0.009,2.924,0.335,3.874,0.922
							c0,0-0.009,0.009,0,0.009c0.224,0.121,0.428,0.279,0.605,0.447C261.66,365.553,261.968,366,262.145,366.494z"/>
						<path style="fill:#263238;" d="M280.334,363.132c-0.112,0.102-0.224,0.195-0.345,0.279c-1.285,0.978-2.691,1.807-4.2,2.44
							c-2.357,1.006-4.955,1.565-7.684,1.565c-1.229,0-2.44-0.112-3.604-0.335c-0.177-0.028-0.363-0.065-0.54-0.112
							c-0.615-0.121-1.22-0.279-1.816-0.475c-1.937-0.615-3.753-1.527-5.374-2.682c-0.177-0.121-0.345-0.242-0.512-0.372
							c0.009,0,0.028-0.009,0.037-0.009c1.397-0.298,3.148-0.624,4.936-0.82c0.177-0.019,0.363-0.037,0.559-0.056
							c3.111-0.279,7.814-0.242,11.12-0.149c0.149,0.009,0.307,0.009,0.456,0.019c1.891,0.074,3.79,0.279,5.327,0.475
							C279.309,362.983,279.859,363.057,280.334,363.132z"/>
						<path style="fill:#263238;" d="M279.989,363.411c-1.285,0.978-2.691,1.807-4.2,2.44
							C276.702,364.491,278.182,363.634,279.989,363.411z"/>
						<path style="fill:#CE7A63;" d="M273.367,362.424c0,0-0.81,3.046-7.348,3.278c-0.27,0.186-0.94,0.68-1.518,1.379
							c-0.177-0.028-0.363-0.065-0.54-0.112c-0.102-0.503-0.149-1.034-0.168-1.295c-1.229-0.084-2.04-0.261-2.543-0.484
							c-0.298-0.14-0.494-0.289-0.605-0.447c0-0.009,0-0.009,0-0.009c-0.68-0.931,1.146-2.179,1.146-2.179
							c3.381-0.857,3.94-2.971,3.67-5.271c-0.028-0.279-0.065-0.568-0.121-0.857c-0.037-0.233-0.084-0.466-0.14-0.699
							c-0.009-0.056-0.028-0.102-0.037-0.158l4.2-3.614l1.285-1.099l1.797-1.546c-0.009,0.056-0.028,0.121-0.037,0.177
							c0,0.009,0,0.009,0,0.009c-0.093,0.447-0.186,0.913-0.27,1.425C271.467,354.805,271.114,360.282,273.367,362.424z"/>
						<path style="opacity:0.2;" d="M265.164,355.566c0.135,0.573,0.242,1.154,0.3,1.715c1.582-0.346,3.673-2.073,3.867-3.699
							c0.073-0.611,0.077-1.201,0.028-1.623L265.164,355.566z"/>
						<path style="fill:#263238;" d="M261.948,336.359c-2.513,1.188-3.802,8.347-0.551,9.826
							C264.647,347.664,266.708,334.108,261.948,336.359z"/>
						<path style="fill:#CE7A63;" d="M273.637,343.879c-1.001,5.015-1.332,7.992-4.244,10.322
							c-4.38,3.505-10.316,0.559-10.835-4.601c-0.467-4.645,1.248-12.065,6.48-13.57
							C270.193,334.548,274.638,338.864,273.637,343.879z"/>
						<path style="fill:#263238;" d="M268.804,337.836l0.25-4.376c1.181,0.491,2.423,0.69,3.543,0.417
							c5.154-1.253,9.135,2.03,6.755,4.945c2.445,1.038,1.123,4.387-0.492,6.53c-2.244,2.977-4.646,4.391-6.324,3.065
							c-1.496-0.718-1.779-5.876-1.3-7.792C271.96,337.737,268.804,337.836,268.804,337.836z"/>
						<path style="fill:#CE7A63;" d="M274.877,349.073c-0.875,1.089-2.094,1.743-3.138,1.94c-1.571,0.296-1.951-1.158-1.174-2.582
							c0.699-1.281,2.359-2.98,3.772-2.631C275.729,346.143,275.878,347.828,274.877,349.073z"/>
						<path style="fill:#263238;" d="M265.762,344.509c-0.056,0.411-0.32,0.722-0.59,0.694c-0.27-0.027-0.442-0.383-0.386-0.794
							c0.056-0.411,0.32-0.722,0.59-0.694S265.819,344.098,265.762,344.509z"/>
						<path style="fill:#263238;" d="M261.101,344.036c-0.056,0.411-0.32,0.722-0.59,0.694c-0.27-0.027-0.442-0.383-0.386-0.794
							c0.056-0.411,0.32-0.722,0.59-0.694C260.984,343.27,261.158,343.625,261.101,344.036z"/>
						<path style="fill:#BA4D3C;" d="M262.555,344.391c0,0-1.262,2.275-2.451,3.314c0.637,0.753,1.919,0.569,1.919,0.569
							L262.555,344.391z"/>
						<path style="fill:#263238;" d="M267.409,343.156c0.04-0.001,0.08-0.011,0.117-0.033c0.116-0.067,0.156-0.216,0.089-0.333
							c-0.666-1.152-1.794-1.2-1.841-1.201c-0.126-0.016-0.247,0.101-0.251,0.236c-0.004,0.134,0.101,0.246,0.235,0.251
							c0.047,0.002,0.913,0.053,1.435,0.958C267.24,343.114,267.324,343.158,267.409,343.156z"/>
						<path style="fill:#263238;" d="M259.316,342.235c0.078-0.001,0.154-0.04,0.199-0.11c0.608-0.925,1.513-0.957,1.522-0.957
							c0.135-0.003,0.241-0.115,0.238-0.249c-0.003-0.134-0.114-0.24-0.247-0.238c0,0-0.001,0-0.001,0
							c-0.048,0.001-1.172,0.04-1.918,1.177c-0.074,0.112-0.042,0.263,0.07,0.337C259.221,342.223,259.269,342.236,259.316,342.235z
							"/>
						<path style="fill:#263238;" d="M272.912,334.43c0,0-4.082-6.712-10.696-4.837c0,0,1.304,0.198,1.883,0.651
							c0,0-5.893-0.109-7.438,4.129l1.077-0.733c0,0-1.26,3.511,0.64,5.639l0.251-1.152c0,0,2.601,2.813,6.123,1.724l-1.279-0.545
							c0,0,6.151-0.61,7.573-2.285C272.467,335.345,272.912,334.43,272.912,334.43z"/>
						<g>
							<path style="fill:#263238;" d="M261.105,349.722c0,0,1.594-0.563,6.192-1.085c-0.382,1.443-1.259,2.685-3.616,2.93
								C261.323,351.813,261.105,349.722,261.105,349.722z"/>
							<path style="fill:#A02724;" d="M264.649,350.358c-1.137,0.118-1.929,0.47-2.489,0.959c0.362,0.205,0.859,0.318,1.518,0.249
								c1.137-0.118,1.925-0.464,2.484-0.958C265.8,350.402,265.308,350.289,264.649,350.358z"/>
							<path style="fill:#FFFFFF;" d="M261.309,349.659c0.164,0.28,0.327,0.56,0.798,0.604c0.966-0.044,3.386-0.594,4.03-0.806
								c0.414-0.117,0.757-0.302,0.962-0.796C263.559,349.071,261.856,349.501,261.309,349.659z"/>
						</g>
					</g>
				</g>
				<g>
					<path style="fill:#FFFFFF;" d="M357.925,366.459c-0.784,0-1.563-0.049-2.381-0.151c-1.311-0.169-2.587-0.47-3.791-0.896
						c-1.399-0.487-2.723-1.133-3.938-1.924c-0.497-0.308-0.971-0.648-1.467-1.05l-0.257-0.208h-0.012
						c-0.113-0.092-0.224-0.189-0.335-0.289c-0.231-0.193-0.419-0.363-0.598-0.534c-3.773-3.525-5.933-8.502-5.933-13.66
						c0-10.317,8.394-18.711,18.711-18.711c10.322,0,18.72,8.394,18.72,18.711c0,4.69-1.728,9.145-4.875,12.592h-0.527l-0.005,0.562
						c-0.326,0.332-0.655,0.638-0.983,0.911c-0.121,0.116-0.181,0.168-0.241,0.22c-0.823,0.697-1.694,1.313-2.583,1.827h-0.686
						l-0.004,0.391c-2.453,1.321-5.219,2.076-8.034,2.189C358.421,366.45,358.169,366.459,357.925,366.459z"/>
					<g>
						<path style="fill:#263238;" d="M372.174,361.271c-0.009,0-0.009,0.009-0.009,0.009c-0.419,0.447-0.857,0.866-1.313,1.248
							c-0.075,0.074-0.149,0.14-0.224,0.205c-0.913,0.773-1.9,1.471-2.952,2.058c-0.009,0-0.009,0-0.009,0.009
							c-2.645,1.527-5.681,2.44-8.922,2.571c-1.062,0.084-2.17,0.056-3.316-0.14c-1.378-0.177-2.719-0.494-3.986-0.941
							c-1.472-0.512-2.859-1.192-4.135-2.021c-0.168-1.09,0.084-2.096,0.382-2.822c0.084-0.205,0.168-0.382,0.251-0.54
							c0.01-0.028,0.019-0.056,0.037-0.084l0.009-0.009c0.177-0.345,0.326-0.549,0.326-0.549s-2.18-0.68-2.57-3.353
							c-0.428-2.887,1.173-4.992,1.173-4.992s-1.919-0.372-2.384-3.763c-0.475-3.399,1.928-4.657,1.928-4.657
							c-1.081-4.023,2.114-5.234,2.114-5.234c0.354-3.921,4.47-3.269,4.47-3.269s1.546-3.027,6.128-0.699
							c0,0,1.602-1.546,5.02-0.037c2.626,1.155,3.092,4.033,3.092,4.033c6.212,2.375,3.604,7.861,3.604,7.861
							c2.99,4.703,0.037,7.861,0.037,7.861C373.422,357.881,372.715,360.274,372.174,361.271z"/>
						<g>
							<path style="fill:#407BFF;" d="M351.526,366.058c-0.028,0.074-0.056,0.158-0.084,0.233c-1.472-0.512-2.859-1.192-4.135-2.021
								c-0.54-0.335-1.052-0.708-1.546-1.108c-0.019,0-0.028-0.019-0.047-0.037c-0.205-0.149-0.4-0.317-0.596-0.494l-0.009-0.009
								c-0.205-0.168-0.41-0.354-0.605-0.54c0.391-0.559,0.792-0.931,1.202-1.006c0,0,0,0,0.009,0c0,0,0.009,0,0.028-0.009
								c0.019,0,0.056,0,0.102-0.009c0.019,0,0.047-0.009,0.084-0.009c0.475-0.093,0.913-0.13,1.304-0.149h0.028
								c0.14-0.009,0.27-0.009,0.391-0.009c0.102,0,0.195,0.009,0.288,0.019c0.885,0.056,1.583,0.317,2.207,0.838
								c0.149,0.121,0.298,0.27,0.447,0.428c0.345,0.373,0.671,0.838,1.006,1.397C351.936,364.139,351.852,365.034,351.526,366.058z
								"/>
						</g>
						<g style="opacity:0.7;">
							<path style="fill:#FFFFFF;" d="M351.526,366.058c-0.028,0.074-0.056,0.158-0.084,0.233c-1.472-0.512-2.859-1.192-4.135-2.021
								c-0.54-0.335-1.052-0.708-1.546-1.108c-0.019,0-0.028-0.019-0.047-0.037c-0.205-0.149-0.4-0.317-0.596-0.494l-0.009-0.009
								c-0.205-0.168-0.41-0.354-0.605-0.54c0.391-0.559,0.792-0.931,1.202-1.006c0,0,0,0,0.009,0c0,0,0.009,0,0.028-0.009
								c0.019,0,0.056,0,0.102-0.009c0.019,0,0.047-0.009,0.084-0.009c0.475-0.093,0.913-0.13,1.304-0.149h0.028
								c0.14-0.009,0.27-0.009,0.391-0.009c0.102,0,0.195,0.009,0.288,0.019c0.885,0.056,1.583,0.317,2.207,0.838
								c0.149,0.121,0.298,0.27,0.447,0.428c0.345,0.373,0.671,0.838,1.006,1.397C351.936,364.139,351.852,365.034,351.526,366.058z
								"/>
						</g>
						<path style="opacity:0.2;" d="M345.761,363.161c-0.019,0-0.028-0.019-0.047-0.037l0.037-0.14L345.761,363.161z"/>
						<g>
							<path style="fill:#407BFF;" d="M370.852,362.528c-0.075,0.074-0.149,0.14-0.224,0.205c-0.913,0.773-1.9,1.471-2.952,2.058
								c-0.009,0-0.009,0-0.009,0.009c-2.645,1.527-5.681,2.44-8.922,2.571c-1.062,0.084-2.17,0.056-3.316-0.14
								c-1.378-0.177-2.719-0.494-3.986-0.941c-1.472-0.512-2.859-1.192-4.135-2.021c-0.54-0.335-1.052-0.708-1.546-1.108
								c-0.019,0-0.028-0.019-0.047-0.037c-0.205-0.149-0.4-0.317-0.596-0.494l-0.009-0.009c0.009-0.037,0.009-0.065,0.028-0.093
								c0.009-0.037,0.019-0.065,0.019-0.093c0.019-0.065,0.028-0.121,0.037-0.177c0.149-0.624,0.298-0.922,0.391-1.062
								c0.028-0.028,0.046-0.056,0.065-0.074c0.009-0.009,0.009-0.009,0.019-0.019c0.019-0.009,0.028-0.019,0.037-0.019v-0.009
								c0,0,0,0,0.009,0c0,0,0.009,0,0.028-0.009c0.019,0,0.056,0,0.102-0.009c0.019,0,0.047-0.009,0.084-0.009
								c0.084-0.009,0.205-0.028,0.345-0.037c0.251-0.028,0.577-0.065,0.959-0.112h0.028c0.121-0.019,0.251-0.028,0.391-0.047
								c0.102-0.009,0.214-0.019,0.326-0.028l0.158-0.019c0.047-0.009,0.093-0.009,0.149-0.009c0.019-0.009,0.028-0.009,0.047-0.009
								c0.13-0.009,0.261-0.028,0.4-0.037c0.112-0.009,0.224-0.019,0.345-0.028c0.019-0.009,0.028-0.009,0.046-0.009
								c0.14-0.009,0.27-0.028,0.41-0.037c0.168-0.009,0.326-0.028,0.494-0.037l0.363-0.028c0.14-0.009,0.289-0.019,0.438-0.028
								c0.242-0.019,0.494-0.037,0.745-0.047c0.223-0.019,0.456-0.028,0.689-0.047c0.661-0.028,1.341-0.065,1.993-0.075h0.149
								c2.468-0.037,4.787,0.168,7.423,0.475c0.54,0.056,1.099,0.13,1.667,0.196c0.242,0.037,0.493,0.065,0.736,0.103
								c0.196,0.028,0.391,0.056,0.587,0.084c0.289,0.047,0.587,0.093,0.866,0.14c0.224,0.037,0.447,0.074,0.661,0.112
								c0.121,0.028,0.242,0.047,0.363,0.074c0.522,0.093,1.015,0.196,1.49,0.298c0.214,0.047,0.419,0.093,0.615,0.14h0.009
								c0.037,0.009,0.084,0.019,0.121,0.028c0.168,0.037,0.335,0.074,0.494,0.112h0.009
								C369.986,362.305,370.461,362.426,370.852,362.528z"/>
						</g>
						<g style="opacity:0.7;">
							<path style="fill:#FFFFFF;" d="M370.852,362.528c-0.075,0.074-0.149,0.14-0.224,0.205c-0.913,0.773-1.9,1.471-2.952,2.058
								c-0.009,0-0.009,0-0.009,0.009c-2.645,1.527-5.681,2.44-8.922,2.571c-1.062,0.084-2.17,0.056-3.316-0.14
								c-1.378-0.177-2.719-0.494-3.986-0.941c-1.472-0.512-2.859-1.192-4.135-2.021c-0.54-0.335-1.052-0.708-1.546-1.108
								c-0.019,0-0.028-0.019-0.047-0.037c-0.205-0.149-0.4-0.317-0.596-0.494c0.009-0.028,0.019-0.065,0.019-0.102
								c0.009-0.037,0.019-0.065,0.019-0.093c0.019-0.065,0.028-0.121,0.037-0.177c0.149-0.624,0.298-0.922,0.391-1.062
								c0.028-0.028,0.046-0.056,0.065-0.074c0.009-0.009,0.009-0.009,0.019-0.019c0.019-0.009,0.028-0.019,0.037-0.019
								c0.009-0.009,0.009-0.009,0.009-0.009s0.009,0,0.028-0.009c0.019,0,0.056,0,0.102-0.009c0.019,0,0.047-0.009,0.084-0.009
								c0.084-0.009,0.205-0.028,0.345-0.037c0.251-0.037,0.577-0.074,0.959-0.112h0.028c0.121-0.019,0.251-0.028,0.391-0.047
								c0.112-0.009,0.223-0.019,0.335-0.037c0.056,0,0.103,0,0.149-0.009s0.093-0.009,0.149-0.009
								c0.019-0.009,0.028-0.009,0.047-0.009c0.13-0.009,0.261-0.028,0.4-0.037c0.112-0.019,0.224-0.028,0.345-0.037h0.046
								c0.14-0.009,0.27-0.028,0.41-0.037c0.168-0.009,0.326-0.028,0.494-0.037l0.363-0.028c0.112-0.009,0.214-0.019,0.326-0.028
								c0.037,0,0.084-0.009,0.121-0.009c0.251-0.019,0.494-0.037,0.745-0.047c0.223-0.009,0.447-0.028,0.68-0.037
								c0.661-0.028,1.341-0.065,1.993-0.075h0.149c2.468-0.037,4.787,0.168,7.423,0.475c0.54,0.056,1.099,0.13,1.667,0.196
								c0.242,0.037,0.493,0.065,0.736,0.103c0.196,0.028,0.391,0.056,0.587,0.084c0.289,0.047,0.587,0.093,0.866,0.14
								c0.224,0.037,0.447,0.074,0.661,0.112c0.121,0.028,0.242,0.047,0.363,0.074c0.522,0.093,1.015,0.196,1.49,0.298
								c0.214,0.047,0.419,0.093,0.615,0.14h0.009c0.037,0.009,0.084,0.019,0.121,0.028c0.168,0.037,0.335,0.074,0.494,0.112h0.009
								C369.986,362.305,370.461,362.426,370.852,362.528z"/>
						</g>
						<path style="fill:#EBB376;" d="M362.094,351.036c-0.799,2.927-1.777,8.326,0.156,10.459c0,0-1.032,2.953-6.549,2.551
							c-6.067-0.443-2.68-3.223-2.68-3.223c3.369-0.549,3.463-3.012,3.054-5.362L362.094,351.036z"/>
						<path style="opacity:0.2;" d="M359.64,352.842l-3.562,2.616c0.099,0.556,0.166,1.118,0.165,1.659
							c1.278-0.091,3.117-1.353,3.348-2.667C359.707,353.794,359.725,353.157,359.64,352.842z"/>
						<g>
							<path style="fill:#EBB376;" d="M363.011,343.834c-0.145,4.978-0.101,7.088-2.528,9.718c-3.651,3.957-9.733,2.69-11.078-2.231
								c-1.211-4.429-0.769-11.826,4.03-13.959C358.164,335.26,363.156,338.856,363.011,343.834z"/>
							<path style="fill:#263238;" d="M350.1,338.934c-1.145,2.55,16.099,7.652,13.541,2.727
								C361.082,336.736,353.09,332.276,350.1,338.934z"/>
							<path style="fill:#263238;" d="M359.109,342.661c0.094,2.391,3.707,4.504,3.707,4.504s3.327-3.687,0.548-4.727
								C360.585,341.399,359.109,342.661,359.109,342.661z"/>
							<path style="fill:#263238;" d="M354.815,345.472c0.013,0.405-0.191,0.739-0.455,0.748c-0.264,0.008-0.489-0.313-0.502-0.717
								s0.191-0.739,0.455-0.748C354.577,344.747,354.802,345.068,354.815,345.472z"/>
							<path style="fill:#263238;" d="M350.243,345.619c0.013,0.404-0.191,0.739-0.455,0.748c-0.264,0.008-0.489-0.313-0.502-0.717
								c-0.013-0.405,0.191-0.739,0.455-0.748C350.005,344.893,350.23,345.215,350.243,345.619z"/>
							<path style="fill:#263238;" d="M349.858,344.921l-0.981-0.249C348.878,344.672,349.401,345.415,349.858,344.921z"/>
							<path style="fill:#D58745;" d="M351.991,346.238c0,0-0.63,1.763-1.359,2.628c0.55,0.481,1.451,0.224,1.451,0.224
								L351.991,346.238z"/>
							<path style="fill:#EBB376;" d="M364.504,348.346c-0.322,0.981-1.067,1.721-1.83,2.092c-1.148,0.557-1.949-0.415-1.82-1.617
								c0.116-1.082,0.853-2.676,2.097-2.732C364.176,346.034,364.872,347.224,364.504,348.346z"/>
							<path style="fill:#263238;" d="M356.621,344.482c-0.099,0.018-0.202-0.027-0.252-0.12c-0.527-0.965-1.933-1.137-1.947-1.138
								c-0.13-0.015-0.224-0.133-0.209-0.263c0.015-0.13,0.132-0.224,0.263-0.209c0.068,0.008,1.666,0.204,2.31,1.383
								c0.063,0.115,0.021,0.26-0.095,0.323C356.668,344.469,356.644,344.477,356.621,344.482z"/>
							<path style="fill:#263238;" d="M348.801,343.551c-0.08,0.015-0.165-0.011-0.223-0.077c-0.087-0.099-0.077-0.249,0.022-0.335
								c0.987-0.868,2.048-0.586,2.092-0.574c0.126,0.035,0.2,0.166,0.165,0.293c-0.035,0.126-0.165,0.2-0.292,0.165l0,0
								c-0.035-0.009-0.864-0.221-1.652,0.472C348.881,343.525,348.842,343.543,348.801,343.551z"/>
							<path style="fill:#263238;" d="M354.43,344.774l-0.981-0.249C353.45,344.525,353.973,345.268,354.43,344.774z"/>
							<g>
								<path style="fill:#263238;" d="M353.071,350.587c0.533,0.557,1.262,1.695,1.262,1.695c0.115-0.048,0.23-0.095,0.342-0.148
									c1.543-0.683,2.034-1.51,2.109-2.219c0.04-0.388-0.05-0.744-0.158-1.018c-0.122-0.318-0.282-0.518-0.282-0.518
									c-0.602,0.851-1.991,1.598-2.75,1.966C353.277,350.503,353.071,350.587,353.071,350.587z"/>
								<path style="fill:#FFFFFF;" d="M353.593,350.346l0.385,0.49c1.452-0.647,2.387-1.297,2.647-1.939
									c-0.122-0.318-0.282-0.518-0.282-0.518C355.742,349.23,354.352,349.978,353.593,350.346z"/>
								<path style="fill:#DE5753;" d="M354.675,352.134c1.543-0.683,2.034-1.51,2.109-2.219c-0.517,0.253-1.112,0.616-1.563,1.098
									C354.874,351.38,354.729,351.775,354.675,352.134z"/>
							</g>
						</g>
						<path style="fill:#EBB376;" d="M369.436,362.174c-1.052,1.006-2.971,2.589-5.457,3.753c-0.205,0.093-0.401,0.186-0.606,0.27
							c-1.397,0.587-2.952,1.034-4.629,1.173c-1.062,0.084-2.17,0.056-3.316-0.14c-0.102-0.019-0.195-0.037-0.298-0.056
							c-1.472-0.279-2.654-0.661-3.604-1.118c-0.894-0.41-1.565-0.885-2.105-1.369c-0.158-0.149-0.307-0.298-0.447-0.456
							c-0.885-0.997-1.202-2.021-1.285-2.785c-0.028-0.205-0.037-0.391-0.037-0.559v-0.037c0.112-0.009,0.223-0.019,0.335-0.037
							c0.103,0,0.196-0.019,0.298-0.019c0.019-0.009,0.028-0.009,0.047-0.009c0.13-0.009,0.261-0.028,0.4-0.037
							c0.112-0.009,0.224-0.019,0.345-0.028v-0.009h0.046c0.14-0.009,0.27-0.028,0.41-0.037c0.168-0.009,0.326-0.028,0.494-0.037
							l0.363-0.028c0.112-0.009,0.214-0.019,0.326-0.028c0.037,0,0.084-0.009,0.121-0.009c0.251-0.019,0.494-0.037,0.745-0.047
							c0.223-0.009,0.447-0.028,0.68-0.037c0.661-0.028,1.341-0.065,1.993-0.075h0.149c2.468-0.037,4.787,0.168,7.423,0.475
							c0.54,0.056,1.099,0.13,1.667,0.196c0.242,0.037,0.493,0.065,0.736,0.103c0.196,0.028,0.391,0.056,0.587,0.084
							c0.289,0.047,0.587,0.093,0.866,0.14c0.224,0.037,0.447,0.074,0.661,0.112c0.121,0.028,0.242,0.047,0.363,0.074
							c0.522,0.093,1.015,0.196,1.49,0.298c0.214,0.047,0.419,0.093,0.615,0.14h0.009c0.037,0.009,0.084,0.019,0.121,0.028
							C369.11,362.1,369.278,362.137,369.436,362.174z"/>
						<g>
							<path style="fill:#263238;" d="M363.974,365.927c-0.197,0.095-0.398,0.183-0.605,0.271c0.174-2.273,0.584-4.029,0.863-5.008
								c0.197,0.023,0.393,0.052,0.589,0.08C364.566,362.165,364.173,363.805,363.974,365.927z"/>
						</g>
						<g>
							<path style="fill:#263238;" d="M351.579,360.528c-0.643,0.973-1.528,2.464-2.154,4.164c-0.166-0.154-0.315-0.305-0.451-0.461
								c0.554-1.446,1.277-2.725,1.868-3.658C351.085,360.556,351.33,360.539,351.579,360.528z"/>
						</g>
						<g>
							<path style="fill:#407BFF;" d="M370.628,362.733c-0.913,0.773-1.9,1.471-2.952,2.058
								C368.523,363.72,369.557,362.91,370.628,362.733z"/>
						</g>
						<g style="opacity:0.7;">
							<path style="fill:#FFFFFF;" d="M370.628,362.733c-0.913,0.773-1.9,1.471-2.952,2.058
								C368.523,363.72,369.557,362.91,370.628,362.733z"/>
						</g>
						<g style="opacity:0.2;enable-background:new    ;">
							<path style="fill:#FFFFFF;" d="M363.974,365.927c-0.197,0.095-0.398,0.183-0.605,0.271c0.174-2.273,0.584-4.029,0.863-5.008
								c0.197,0.023,0.393,0.052,0.589,0.08C364.566,362.165,364.173,363.805,363.974,365.927z"/>
						</g>
						<g style="opacity:0.2;enable-background:new    ;">
							<path style="fill:#FFFFFF;" d="M351.579,360.528c-0.643,0.973-1.528,2.464-2.154,4.164c-0.166-0.154-0.315-0.305-0.451-0.461
								c0.554-1.446,1.277-2.725,1.868-3.658C351.085,360.556,351.33,360.539,351.579,360.528z"/>
						</g>
					</g>
					<path style="opacity:0.5;fill:#FFFFFF;" d="M377.576,347.748c0,5.253-2.058,10.012-5.402,13.523
						c-0.009,0-0.009,0.009-0.009,0.009c-0.419,0.447-0.857,0.866-1.313,1.248c-0.075,0.074-0.149,0.14-0.224,0.205
						c-0.913,0.773-1.9,1.471-2.952,2.058c-0.009,0-0.009,0-0.009,0.009c-2.645,1.527-5.681,2.44-8.922,2.571
						c-0.27,0.009-0.549,0.019-0.819,0.019c-0.848,0-1.677-0.056-2.496-0.158c-1.378-0.177-2.719-0.494-3.986-0.941
						c-1.472-0.512-2.859-1.192-4.135-2.021c-0.54-0.335-1.052-0.708-1.546-1.108c-0.019,0-0.028-0.019-0.047-0.037
						c-0.205-0.149-0.4-0.317-0.596-0.494l-0.009-0.009c-0.205-0.168-0.41-0.354-0.605-0.54c-3.828-3.576-6.221-8.68-6.221-14.333
						c0-10.85,8.792-19.642,19.642-19.642C368.775,328.105,377.576,336.897,377.576,347.748z"/>
				</g>
				<g>
					<path style="opacity:0.5;fill:#FFFFFF;" d="M332.657,347.774c0,6.156-2.831,11.642-7.255,15.237c0,0,0,0-0.009,0
						c-0.41,0.345-0.829,0.661-1.267,0.959c-0.987,0.68-2.04,1.276-3.157,1.76c-1.369,0.615-2.822,1.071-4.331,1.341
						c0,0,0,0,0,0.009c-0.121,0.028-0.251,0.047-0.372,0.065c-1.052,0.177-2.142,0.27-3.251,0.27c-1.425,0-2.813-0.149-4.154-0.447
						c-0.847-0.177-1.667-0.41-2.468-0.698c-0.959-0.345-1.881-0.754-2.766-1.239c-0.186-0.102-0.373-0.205-0.559-0.317
						c-0.121-0.065-0.233-0.14-0.354-0.214c-0.103-0.056-0.196-0.121-0.289-0.186c-0.522-0.335-1.034-0.689-1.518-1.08
						c-0.307-0.233-0.605-0.484-0.894-0.754h-0.009c-0.075-0.065-0.149-0.13-0.224-0.196c-3.94-3.586-6.408-8.764-6.408-14.51
						c0-10.85,8.792-19.642,19.642-19.642C323.865,328.131,332.657,336.923,332.657,347.774z"/>
					<path style="fill:#FFFFFF;" d="M313.015,366.484c-1.352,0-2.682-0.143-3.952-0.425c-0.805-0.168-1.593-0.391-2.354-0.665
						c-0.924-0.332-1.81-0.729-2.635-1.18c-0.185-0.103-0.357-0.197-0.529-0.3c-0.102-0.056-0.167-0.098-0.234-0.14l-0.107-0.067
						c-0.115-0.064-0.178-0.11-0.242-0.156c-0.593-0.381-1.063-0.716-1.468-1.043c-0.305-0.231-0.578-0.461-0.843-0.709
						l-0.268-0.251h-0.025c-3.842-3.517-6.052-8.539-6.052-13.775c0-10.317,8.394-18.711,18.711-18.711
						c10.317,0,18.711,8.394,18.711,18.711c0,5.545-2.422,10.741-6.659,14.306l-0.273,0.218c-0.382,0.322-0.772,0.617-1.191,0.901
						c-0.973,0.67-1.982,1.233-3.005,1.677c-1.331,0.598-2.715,1.026-4.124,1.278l-0.731,0.131
						C314.83,366.419,313.923,366.484,313.015,366.484z"/>
					<g>
						<path style="fill:#263238;" d="M301.767,347.993c0.506,2.69,0,6.213,0,6.213s12.515,1.736,15.554-0.579
							c3.038-2.315,4.382-16.076-2.387-17.398S300.175,339.537,301.767,347.993z"/>
						<path style="fill:#407BFF;" d="M324.126,363.97c-0.987,0.68-2.04,1.276-3.157,1.76c-1.369,0.615-2.822,1.071-4.331,1.341
							c0,0,0,0,0,0.009c-0.121,0.028-0.251,0.047-0.372,0.065c-1.052,0.177-2.142,0.27-3.251,0.27c-1.425,0-2.813-0.149-4.154-0.447
							c-0.847-0.177-1.667-0.41-2.468-0.698c-0.959-0.345-1.881-0.754-2.766-1.239c-0.186-0.102-0.373-0.205-0.559-0.317
							c-0.121-0.065-0.233-0.14-0.354-0.214c-0.103-0.056-0.196-0.121-0.289-0.186c-0.522-0.335-1.034-0.689-1.518-1.08
							c-0.307-0.233-0.605-0.484-0.894-0.754c0.727-0.214,1.453-0.382,2.124-0.494h0.019c0.633-0.112,1.211-0.177,1.704-0.224
							c0.27-0.019,0.512-0.037,0.727-0.046c0.224-0.019,0.41-0.019,0.549-0.019c0.186-0.009,0.298-0.009,0.298-0.009
							c-0.019,0.112-0.037,0.224-0.047,0.326v0.009c-0.112,1.062,0.307,1.667,1.052,1.937c1.024,0.391,2.682,0.149,4.387-0.317
							c0.382-0.112,0.764-0.224,1.146-0.354c1.853-0.596,3.632-1.378,4.573-1.807c0.457-0.214,0.717-0.345,0.717-0.345
							c0.121,0,0.242,0,0.363,0.009c1.22,0.009,2.254,0.195,3.12,0.484h0.028c0.009,0,0.019,0,0.028,0.009
							c0.009,0,0.019,0,0.028,0.009C322.394,362.191,323.437,363.076,324.126,363.97z"/>
						<path style="opacity:0.7;fill:#FFFFFF;" d="M324.126,363.97c-0.987,0.68-2.04,1.276-3.157,1.76
							c-1.369,0.615-2.822,1.071-4.331,1.341c0,0,0,0,0,0.009c-0.121,0.028-0.251,0.047-0.372,0.065
							c-1.052,0.177-2.142,0.27-3.251,0.27c-1.425,0-2.813-0.149-4.154-0.447c-0.847-0.177-1.667-0.41-2.468-0.698
							c-0.959-0.345-1.881-0.754-2.766-1.239c-0.186-0.102-0.373-0.205-0.559-0.317c-0.121-0.065-0.233-0.14-0.354-0.214
							c-0.103-0.056-0.196-0.121-0.289-0.186c-0.522-0.335-1.034-0.689-1.518-1.08c-0.307-0.233-0.605-0.484-0.894-0.754
							c0.727-0.214,1.453-0.382,2.124-0.494h0.019c0.633-0.112,1.211-0.177,1.704-0.224c0.27-0.019,0.512-0.037,0.727-0.046
							c0.224-0.019,0.41-0.019,0.549-0.019c0.186-0.009,0.298-0.009,0.298-0.009c-0.019,0.112-0.037,0.224-0.047,0.326v0.009
							c-0.112,1.062,0.307,1.667,1.052,1.937c1.024,0.391,2.682,0.149,4.387-0.317c0.382-0.112,0.764-0.224,1.146-0.354
							c1.853-0.596,3.632-1.378,4.573-1.807c0.457-0.214,0.717-0.345,0.717-0.345c0.121,0,0.242,0,0.363,0.009
							c1.22,0.009,2.254,0.195,3.12,0.484h0.028c0.009,0,0.019,0,0.028,0.009c0.009,0,0.019,0,0.028,0.009
							C322.394,362.191,323.437,363.076,324.126,363.97z"/>
						<path style="fill:#EEC1BB;" d="M311.543,363.653c-0.233,0-0.466,0-0.717-0.009c-0.363,0.857-1.183,2.17-1.965,3.325
							c-0.847-0.177-1.667-0.41-2.468-0.698c-0.112-0.764-0.13-1.49,0.075-1.937c-4.014-0.345-2.347-1.621-1.081-2.31v-0.009
							c0.512-0.27,0.95-0.456,0.95-0.456c1.183-0.279,2.012-0.736,2.561-1.323c0.792-0.829,1.043-1.9,1.034-3.036
							c0-0.149,0-0.298-0.009-0.447c-0.028-0.41-0.084-0.829-0.158-1.239c0-0.047-0.01-0.093-0.019-0.14h0.009l0.671-0.54
							l3.297-2.645l2.617-2.095l0.112-0.093c-0.019,0.056-0.028,0.112-0.047,0.177c-0.195,0.726-0.4,1.583-0.568,2.496
							c-0.056,0.27-0.103,0.549-0.149,0.829c0,0,0,0,0,0.009c-0.047,0.279-0.093,0.577-0.121,0.857v0.009
							c-0.037,0.196-0.056,0.391-0.075,0.577c-0.186,1.686-0.195,3.381,0.149,4.731c0.186,0.717,0.475,1.332,0.903,1.797
							c0.019,0.028,0.037,0.047,0.065,0.074C316.61,361.558,319.376,363.774,311.543,363.653z"/>
						<path style="opacity:0.2;" d="M313.718,352.192l-3.968,3.183c0.109,0.608,0.182,1.224,0.181,1.823
							c1.423-0.203,3.471-1.748,3.73-3.222C313.791,353.24,313.813,352.534,313.718,352.192z"/>
						<g>
							<path style="fill:#EEC1BB;" d="M319.273,343.365c-1.002,5.334-1.314,7.607-4.357,10.166
								c-4.579,3.849-10.869,1.813-11.471-3.626c-0.541-4.895,1.189-12.796,6.686-14.558
								C315.546,333.612,320.275,338.031,319.273,343.365z"/>
							<path style="fill:#263238;" d="M314.686,339.511c2.944,3.799-3.102,8.167,2.944,7.914c6.046-0.253,3.59-8.79,0-10.731
								C314.04,334.754,314.686,339.511,314.686,339.511z"/>
							<path style="fill:#263238;" d="M310.823,344.254c-0.065,0.451-0.352,0.8-0.641,0.779s-0.471-0.404-0.406-0.856
								c0.065-0.451,0.352-0.8,0.64-0.779C310.706,343.419,310.887,343.803,310.823,344.254z"/>
							<path style="fill:#263238;" d="M305.374,343.933c-0.065,0.451-0.352,0.8-0.641,0.779c-0.289-0.021-0.471-0.404-0.406-0.856
								c0.065-0.451,0.352-0.8,0.641-0.779S305.439,343.481,305.374,343.933z"/>
							<path style="fill:#263238;" d="M305.092,343.111l-1.017-0.391C304.075,342.72,304.498,343.608,305.092,343.111z"/>
							<path style="fill:#D4827D;" d="M306.784,344.785c0,0-1.029,1.888-1.989,2.764c0.504,0.599,1.533,0.418,1.533,0.418
								L306.784,344.785z"/>
							<path style="fill:#263238;" d="M308.63,349.823c-0.235,0.025-0.485,0.03-0.751,0.011c-0.072-0.005-0.121-0.069-0.111-0.142
								c0.01-0.073,0.075-0.128,0.149-0.123c1.939,0.144,3.045-1.174,3.056-1.187c0.048-0.059,0.131-0.07,0.185-0.026
								c0.054,0.044,0.06,0.128,0.012,0.186C311.128,348.593,310.238,349.655,308.63,349.823z"/>
							<path style="fill:#263238;" d="M312.344,341.828c-0.069,0.001-0.137-0.025-0.185-0.079c-0.756-0.846-1.715-0.665-1.726-0.663
								c-0.142,0.027-0.275-0.064-0.293-0.209c-0.018-0.144,0.084-0.284,0.228-0.313c0.05-0.01,1.254-0.238,2.192,0.812
								c0.093,0.105,0.08,0.273-0.031,0.376C312.475,341.802,312.409,341.827,312.344,341.828z"/>
							<path style="fill:#263238;" d="M304.149,341.34c-0.066,0.005-0.131-0.014-0.182-0.059c-0.105-0.093-0.109-0.259-0.009-0.372
								c1.007-1.131,2.206-1.012,2.257-1.006c0.143,0.016,0.238,0.146,0.211,0.292c-0.027,0.145-0.164,0.249-0.307,0.234
								c-0.047-0.005-0.979-0.084-1.78,0.815C304.288,341.303,304.219,341.335,304.149,341.34z"/>
							<path style="fill:#263238;" d="M310.541,343.433l-1.017-0.391C309.523,343.042,309.947,343.929,310.541,343.433z"/>
							<path style="fill:#263238;" d="M312.621,336.554c0,0,1.047,6.288,5.224,7.34c4.177,1.052,0.786-6.465,0.786-6.465
								s-0.877-3.407-6.52-3.407s-12.154,5.732-10.345,13.971c0,0-0.31-2.75,0.94-4.917
								C303.958,340.909,305.245,342.776,312.621,336.554z"/>
							<path style="fill:#263238;" d="M316.42,334.965c5.965,2.385,8.135,6.292,7.629,10.633s-5.86,8.935-6.728,9.097l-2.68,0.38
								c0,0,4.124-5.734,3.33-7.678c-0.795-1.944-1.59-2.135-1.59-2.135L316.42,334.965z"/>
							<path style="fill:#EEC1BB;" d="M319.791,348.509c-0.546,1.094-1.443,1.768-2.268,1.987c-1.241,0.329-1.78-1.094-1.367-2.515
								c0.372-1.279,1.466-2.992,2.679-2.683C320.03,345.602,320.416,347.259,319.791,348.509z"/>
						</g>
						<g>
							<path style="fill:#263238;" d="M322.971,362.126c0.484,0.14,1.565,0.559,2.421,0.885c-0.41,0.345-0.829,0.661-1.267,0.959
								c-0.987,0.68-2.04,1.276-3.157,1.76c-1.369,0.615-2.822,1.071-4.331,1.341c0.093-0.317,0.195-0.624,0.289-0.922
								c0.019-0.065,0.037-0.13,0.065-0.186c0.037-0.121,0.075-0.233,0.121-0.354c0.009-0.019,0.019-0.046,0.028-0.074
								c0.084-0.242,0.168-0.475,0.261-0.708c0.149-0.401,0.307-0.773,0.475-1.127c0.046-0.112,0.102-0.224,0.168-0.335
								c0.047-0.112,0.112-0.224,0.168-0.335c0.009-0.009,0.009-0.009,0-0.019c0.019-0.019,0.028-0.037,0.037-0.056
								c0.075-0.13,0.149-0.251,0.214-0.373c0.093-0.149,0.186-0.298,0.279-0.428c0.214-0.307,0.438-0.559,0.661-0.773
								c0,0,0.251,0.047,0.633,0.121c0.14,0.028,0.298,0.056,0.466,0.084c0.075,0.009,0.159,0.028,0.242,0.046h0.028
								c0.009,0,0.019,0,0.028,0.009c0.009,0,0.019,0,0.028,0.009c0.065,0,0.14,0.019,0.205,0.037
								c0.317,0.065,0.652,0.13,0.95,0.205c0.075,0.009,0.149,0.028,0.214,0.046c0.214,0.037,0.41,0.093,0.568,0.13
								C322.841,362.088,322.915,362.107,322.971,362.126z"/>
							<path style="opacity:0.2;fill:#FFFFFF;" d="M322.971,362.126c0.484,0.14,1.565,0.559,2.421,0.885
								c-0.41,0.345-0.829,0.661-1.267,0.959c-0.987,0.68-2.04,1.276-3.157,1.76c-1.369,0.615-2.822,1.071-4.331,1.341
								c0.093-0.317,0.195-0.624,0.289-0.922c0.019-0.065,0.037-0.13,0.065-0.186c0.037-0.121,0.075-0.233,0.121-0.354
								c0.009-0.019,0.019-0.046,0.028-0.074c0.084-0.242,0.168-0.475,0.261-0.708c0.149-0.401,0.307-0.773,0.475-1.127
								c0.046-0.112,0.102-0.224,0.168-0.335c0.047-0.112,0.112-0.224,0.168-0.335c0.009-0.009,0.009-0.009,0-0.019
								c0.019-0.019,0.028-0.037,0.037-0.056c0.075-0.13,0.149-0.251,0.214-0.373c0.093-0.149,0.186-0.298,0.279-0.428
								c0.214-0.307,0.438-0.559,0.661-0.773c0,0,0.251,0.047,0.633,0.121c0.14,0.028,0.298,0.056,0.466,0.084
								c0.075,0.009,0.159,0.028,0.242,0.046h0.028c0.009,0,0.019,0,0.028,0.009c0.009,0,0.019,0,0.028,0.009
								c0.065,0,0.14,0.019,0.205,0.037c0.317,0.065,0.652,0.13,0.95,0.205c0.075,0.009,0.149,0.028,0.214,0.046
								c0.214,0.037,0.41,0.093,0.568,0.13C322.841,362.088,322.915,362.107,322.971,362.126z"/>
							<path style="fill:#263238;" d="M320.969,365.73c-1.369,0.615-2.822,1.071-4.331,1.341c0,0,0,0,0,0.009
								c-0.121,0.028-0.251,0.047-0.372,0.065c0.112-0.373,0.233-0.736,0.354-1.09c0.447-1.276,0.969-2.412,1.583-3.306
								c0.363-0.549,0.764-1.015,1.202-1.369C319.404,361.381,320.251,363.122,320.969,365.73z"/>
						</g>
						<g>
							<path style="fill:#263238;" d="M303.888,361.716c0,0-0.009,0.019-0.028,0.046c-0.084,0.149-0.391,0.736-0.801,1.798
								c0,0,0,0,0,0.009c-0.112,0.27-0.224,0.587-0.345,0.931c-0.103-0.056-0.196-0.121-0.289-0.186
								c-0.522-0.335-1.034-0.689-1.518-1.08c-0.307-0.233-0.605-0.484-0.894-0.754h-0.009c-0.075-0.065-0.149-0.13-0.224-0.196
								c0.875-0.224,1.919-0.438,3.027-0.522C303.161,361.734,303.525,361.716,303.888,361.716z"/>
							<path style="opacity:0.2;fill:#FFFFFF;" d="M303.888,361.716c0,0-0.009,0.019-0.028,0.046
								c-0.084,0.149-0.391,0.736-0.801,1.798c0,0,0,0,0,0.009c-0.112,0.27-0.224,0.587-0.345,0.931
								c-0.103-0.056-0.196-0.121-0.289-0.186c-0.522-0.335-1.034-0.689-1.518-1.08c-0.307-0.233-0.605-0.484-0.894-0.754h-0.009
								c-0.075-0.065-0.149-0.13-0.224-0.196c0.875-0.224,1.919-0.438,3.027-0.522C303.161,361.734,303.525,361.716,303.888,361.716
								z"/>
							<path style="fill:#263238;" d="M304.586,361.716c-0.28,0.149-0.55,0.54-0.82,1.118c-0.242,0.503-0.475,1.136-0.699,1.881
								c-0.121-0.065-0.233-0.14-0.354-0.214c-0.103-0.056-0.196-0.121-0.289-0.186c-0.522-0.335-1.034-0.689-1.518-1.08
								c0.475-0.643,0.894-1.099,1.229-1.248h0.019c0.233-0.102,0.456-0.168,0.652-0.224
								C304.027,361.418,304.586,361.716,304.586,361.716z"/>
						</g>
						<g>
							<path style="fill:#407BFF;" d="M306.44,363.96c0,0.121,0.009,0.252,0.028,0.373l-2.841,0.698
								c-0.186-0.102-0.373-0.205-0.559-0.317c-0.121-0.065-0.233-0.14-0.354-0.214c-0.103-0.056-0.196-0.121-0.289-0.186
								c0.177-0.233,0.391-0.484,0.633-0.745c0-0.009,0-0.009,0-0.009c0.214-0.242,0.447-0.484,0.708-0.726
								c0.4-0.391,0.866-0.782,1.369-1.136c1.062-0.745,2.328-1.332,3.763-1.462c0.037,0,0.065-0.009,0.103-0.009
								C309.001,360.226,306.458,361.995,306.44,363.96z"/>
							<path style="fill:#407BFF;" d="M317.759,366.42l-6.869-2.231c0,0,3.635-2.933,4.769-4.521l2.268,1.704c0,0,0,0,0.007,0.007
								C317.985,361.504,318.658,363.172,317.759,366.42z"/>
							<path style="opacity:0.6;fill:#FFFFFF;" d="M306.44,363.96c0,0.121,0.009,0.252,0.028,0.373l-2.841,0.698
								c-0.186-0.102-0.373-0.205-0.559-0.317c-0.121-0.065-0.233-0.14-0.354-0.214c-0.103-0.056-0.196-0.121-0.289-0.186
								c0.177-0.233,0.391-0.484,0.633-0.745c0-0.009,0-0.009,0-0.009c0.214-0.242,0.447-0.484,0.708-0.726
								c0.4-0.391,0.866-0.782,1.369-1.136c1.062-0.745,2.328-1.332,3.763-1.462c0.037,0,0.065-0.009,0.103-0.009
								C309.001,360.226,306.458,361.995,306.44,363.96z"/>
							<path style="opacity:0.6;fill:#FFFFFF;" d="M317.759,366.42l-6.869-2.231c0,0,3.635-2.933,4.769-4.521l2.268,1.704
								c0,0,0,0,0.007,0.007C317.985,361.504,318.658,363.172,317.759,366.42z"/>
						</g>
					</g>
				</g>
				<g>
					<path style="fill:#407BFF;stroke:#FFFFFF;stroke-width:0.9313;stroke-miterlimit:10;enable-background:new    ;" d="
						M282.179,367.416c-3.07,0-5.568-2.498-5.568-5.568c0-3.07,2.498-5.568,5.568-5.568c3.07,0,5.569,2.498,5.569,5.568
						C287.747,364.918,285.249,367.416,282.179,367.416z"/>
					
						<polyline style="fill:none;stroke:#FFFFFF;stroke-width:1.151;stroke-linecap:round;stroke-linejoin:round;stroke-miterlimit:10;" points="
						279.065,361.174 281.522,364.069 285.293,359.625 					"/>
				</g>
				<g>
					<path style="fill:#407BFF;stroke:#FFFFFF;stroke-width:0.9313;stroke-miterlimit:10;enable-background:new    ;" d="
						M327.089,367.416c-3.07,0-5.568-2.498-5.568-5.568c0-3.07,2.498-5.568,5.568-5.568c3.07,0,5.569,2.498,5.569,5.568
						C332.657,364.918,330.159,367.416,327.089,367.416z"/>
					
						<polyline style="fill:none;stroke:#FFFFFF;stroke-width:1.151;stroke-linecap:round;stroke-linejoin:round;stroke-miterlimit:10;" points="
						323.974,361.174 326.431,364.069 330.203,359.625 					"/>
				</g>
			</g>
			<g>
				
					<polyline style="fill:none;stroke:#FFFFFF;stroke-width:0.9313;stroke-linecap:round;stroke-linejoin:round;stroke-miterlimit:10;" points="
					307.125,380.162 313.02,383.288 318.914,380.162 				"/>
				
					<polyline style="fill:none;stroke:#FFFFFF;stroke-width:0.9313;stroke-linecap:round;stroke-linejoin:round;stroke-miterlimit:10;" points="
					307.125,376.435 313.02,379.56 318.914,376.435 				"/>
			</g>
			<g>
				<g>
					
						<rect x="254.249" y="139.836" transform="matrix(-1 -1.224647e-16 1.224647e-16 -1 510.3603 282.1556)" style="opacity:0.6;fill:#FFFFFF;enable-background:new    ;" width="1.862" height="2.483"/>
					
						<rect x="251.214" y="139.008" transform="matrix(-1 -1.224647e-16 1.224647e-16 -1 504.2902 281.3274)" style="opacity:0.6;fill:#FFFFFF;enable-background:new    ;" width="1.862" height="3.311"/>
					
						<rect x="248.179" y="138.18" transform="matrix(-1 -1.224647e-16 1.224647e-16 -1 498.2201 280.4992)" style="opacity:0.6;fill:#FFFFFF;enable-background:new    ;" width="1.862" height="4.139"/>
					
						<rect x="245.144" y="137.352" transform="matrix(-1 -1.224647e-16 1.224647e-16 -1 492.1501 279.6709)" style="opacity:0.6;fill:#FFFFFF;enable-background:new    ;" width="1.862" height="4.968"/>
				</g>
				<g>
					<rect x="370.238" y="138.93" style="opacity:0.6;fill:#FFFFFF;enable-background:new    ;" width="1.104" height="2.483"/>
					
						<rect x="372.101" y="138.024" transform="matrix(-1 -1.224647e-16 1.224647e-16 -1 752.9963 280.3435)" style="opacity:0.6;fill:#FFFFFF;enable-background:new    ;" width="8.795" height="4.295"/>
				</g>
			</g>
		</g>
		<g>
			<path style="opacity:0.2;fill:#FFFFFF;enable-background:new    ;" d="M380.27,131.401L237.633,274.038V134.726
				c0-1.77,1.304-3.325,3.073-3.325h35.792c1.015,0,1.928,0.661,2.31,1.611l1.481,3.651c0.372,0.941,1.294,1.593,2.3,1.593h60.938
				c1.006,0,1.928-0.624,2.301-1.565l1.481-3.669c0.382-0.95,1.295-1.62,2.31-1.62H380.27z"/>
			<polygon style="opacity:0.2;fill:#FFFFFF;enable-background:new    ;" points="388.409,157.842 388.409,169.549 237.633,320.316 
				237.633,308.618 			"/>
		</g>
	</g>
</g>
<g id="Speech_bubble">
	<g>
		<g>
			<path style="fill:#407BFF;" d="M149.305,125.093h36.575c2.678,0,4.85,2.171,4.85,4.85v29.063c0,2.678-2.171,4.849-4.85,4.849
				h-3.196l6.548,12.944l-12.09-12.944h-27.838c-2.678,0-4.849-2.171-4.849-4.849v-29.064
				C144.456,127.264,146.627,125.093,149.305,125.093z"/>
			<path style="opacity:0.7;fill:#FFFFFF;" d="M149.305,125.093h36.575c2.678,0,4.85,2.171,4.85,4.85v29.063
				c0,2.678-2.171,4.849-4.85,4.849h-3.196l6.548,12.944l-12.09-12.944h-27.838c-2.678,0-4.849-2.171-4.849-4.849v-29.064
				C144.456,127.264,146.627,125.093,149.305,125.093z"/>
		</g>
		<g>
			<g>
				<rect x="149.795" y="122.48" style="fill:#FFFFFF;" width="35.596" height="35.191"/>
				<rect x="149.795" y="122.48" style="fill:#407BFF;enable-background:new    ;" width="35.596" height="8.26"/>
			</g>
			<g>
				<g>
					<path style="fill:#263238;" d="M155.557,127.762c-0.772,0-1.397-0.625-1.397-1.397v-5.118c0-0.772,0.625-1.397,1.397-1.397
						c0.772,0,1.397,0.625,1.397,1.397v5.118C156.954,127.137,156.329,127.762,155.557,127.762z"/>
				</g>
				<g>
					<path style="fill:#263238;" d="M161.575,127.762c-0.772,0-1.397-0.625-1.397-1.397v-5.118c0-0.772,0.625-1.397,1.397-1.397
						c0.772,0,1.397,0.625,1.397,1.397v5.118C162.972,127.137,162.346,127.762,161.575,127.762z"/>
				</g>
				<g>
					<path style="fill:#263238;" d="M167.593,127.762c-0.772,0-1.397-0.625-1.397-1.397v-5.118c0-0.772,0.625-1.397,1.397-1.397
						s1.397,0.625,1.397,1.397v5.118C168.99,127.137,168.365,127.762,167.593,127.762z"/>
				</g>
				<g>
					<path style="fill:#263238;" d="M173.611,127.762c-0.772,0-1.397-0.625-1.397-1.397v-5.118c0-0.772,0.625-1.397,1.397-1.397
						c0.772,0,1.397,0.625,1.397,1.397v5.118C175.008,127.137,174.383,127.762,173.611,127.762z"/>
				</g>
				<g>
					<path style="fill:#263238;" d="M179.629,127.762c-0.772,0-1.397-0.625-1.397-1.397v-5.118c0-0.772,0.625-1.397,1.397-1.397
						c0.772,0,1.397,0.625,1.397,1.397v5.118C181.026,127.137,180.4,127.762,179.629,127.762z"/>
				</g>
			</g>
			<g style="opacity:0.7;">
				<g>
					<path style="fill:#FFFFFF;" d="M155.557,127.762c-0.772,0-1.397-0.625-1.397-1.397v-5.118c0-0.772,0.625-1.397,1.397-1.397
						c0.772,0,1.397,0.625,1.397,1.397v5.118C156.954,127.137,156.329,127.762,155.557,127.762z"/>
				</g>
				<g>
					<path style="fill:#FFFFFF;" d="M161.575,127.762c-0.772,0-1.397-0.625-1.397-1.397v-5.118c0-0.772,0.625-1.397,1.397-1.397
						c0.772,0,1.397,0.625,1.397,1.397v5.118C162.972,127.137,162.346,127.762,161.575,127.762z"/>
				</g>
				<g>
					<path style="fill:#FFFFFF;" d="M167.593,127.762c-0.772,0-1.397-0.625-1.397-1.397v-5.118c0-0.772,0.625-1.397,1.397-1.397
						s1.397,0.625,1.397,1.397v5.118C168.99,127.137,168.365,127.762,167.593,127.762z"/>
				</g>
				<g>
					<path style="fill:#FFFFFF;" d="M173.611,127.762c-0.772,0-1.397-0.625-1.397-1.397v-5.118c0-0.772,0.625-1.397,1.397-1.397
						c0.772,0,1.397,0.625,1.397,1.397v5.118C175.008,127.137,174.383,127.762,173.611,127.762z"/>
				</g>
				<g>
					<path style="fill:#FFFFFF;" d="M179.629,127.762c-0.772,0-1.397-0.625-1.397-1.397v-5.118c0-0.772,0.625-1.397,1.397-1.397
						c0.772,0,1.397,0.625,1.397,1.397v5.118C181.026,127.137,180.4,127.762,179.629,127.762z"/>
				</g>
			</g>
			<g>
				<path style="fill:#263238;" d="M167.007,148.021v2.09h-9.802v-1.653l5.281-5.015c1.292-1.235,1.52-2.014,1.52-2.755
					c0-1.216-0.836-1.919-2.47-1.919c-1.292,0-2.374,0.437-3.115,1.387l-1.729-1.33c1.026-1.387,2.869-2.204,5.053-2.204
					c2.888,0,4.749,1.462,4.749,3.818c0,1.292-0.361,2.47-2.204,4.198l-3.553,3.381H167.007z"/>
				<path style="fill:#263238;" d="M178.06,148.021v2.09h-9.802v-1.653l5.281-5.015c1.292-1.235,1.52-2.014,1.52-2.755
					c0-1.216-0.836-1.919-2.47-1.919c-1.292,0-2.374,0.437-3.115,1.387l-1.729-1.33c1.026-1.387,2.869-2.204,5.053-2.204
					c2.888,0,4.749,1.462,4.749,3.818c0,1.292-0.361,2.47-2.204,4.198l-3.553,3.381H178.06z"/>
			</g>
		</g>
	</g>
</g>
<g id="Character">
	<g>
		<g>
			<path style="fill:#263238;" d="M202.378,207.658c-0.695,1.376-1.331,2.528-2.024,3.758c-0.686,1.207-1.391,2.399-2.117,3.58
				c-1.455,2.359-3.02,4.659-4.679,6.916c-1.663,2.256-3.448,4.454-5.416,6.557c-1.97,2.102-4.116,4.122-6.582,5.946l-0.117,0.087
				c-1.229,0.908-2.767,1.146-4.139,0.79c-2.318-0.616-4.096-2.042-5.246-3.385c-1.176-1.368-1.922-2.731-2.528-4.041
				c-1.177-2.623-1.798-5.108-2.291-7.559c-0.47-2.45-0.726-4.861-0.892-7.255c-0.063-1.199-0.101-2.393-0.116-3.587l-0.003-1.793
				l0.012-0.902c-0.018-0.307,0.04-0.598,0.742-0.956c1.63-0.831,3.435-0.95,5.061-0.472l1.249,0.369
				c0.713,0.211,0.79,0.488,0.795,0.75l0.091,0.802l0.208,1.613c0.149,1.075,0.32,2.147,0.512,3.208
				c0.349,2.126,0.787,4.218,1.31,6.209c0.514,1.981,1.165,3.897,1.958,5.382c0.39,0.732,0.827,1.339,1.172,1.667
				c0.36,0.345,0.504,0.313,0.407,0.257l-4.256,0.877c3.458-2.819,6.542-6.712,9.346-10.779c1.399-2.05,2.719-4.181,3.979-6.354
				c0.632-1.085,1.246-2.182,1.839-3.286c0.58-1.083,1.188-2.263,1.66-3.257l0.028-0.058c1.324-2.788,4.657-3.976,7.445-2.653
				c2.789,1.323,3.976,4.657,2.653,7.445C202.422,207.569,202.394,207.626,202.378,207.658z"/>
		</g>
		<g>
			<path style="fill:#263238;" d="M199.436,403.016l6.779-4.74c0.227-0.173,0.544-0.161,0.757,0.029l4.396,4.19
				c0.394,0.423,0.371,1.086-0.053,1.481c-0.052,0.048-0.109,0.092-0.17,0.129c-2.366,1.596-3.658,2.328-6.608,4.386
				c-1.812,1.261-9.522,5.855-12.431,6.186c-2.91,0.331-3.358-2.413-2.189-2.909c5.899-2.497,8.108-5.456,8.773-7.733
				C198.82,403.622,199.082,403.264,199.436,403.016z"/>
			<path style="opacity:0.2;enable-background:new    ;" d="M199.436,403.016l6.779-4.74c0.227-0.173,0.544-0.161,0.757,0.029
				l4.396,4.19c0.394,0.423,0.371,1.086-0.053,1.481c-0.052,0.048-0.109,0.092-0.17,0.129c-2.366,1.596-3.658,2.328-6.608,4.386
				c-1.812,1.261-9.522,5.855-12.431,6.186c-2.91,0.331-3.358-2.413-2.189-2.909c5.899-2.497,8.108-5.456,8.773-7.733
				C198.82,403.622,199.082,403.264,199.436,403.016z"/>
		</g>
		<g>
			<g>
				<path style="fill:#263238;" d="M198.118,248.533c0,0-25.51,56.754-26.885,76.984c-1.509,22.182,26.08,79.285,26.08,79.285
					l12.559-3.318c0,0-19.495-57.691-18.182-74.69c4.191-24.319,33.372-74.232,33.372-74.232L198.118,248.533z"/>
				<path style="opacity:0.2;fill:#FFFFFF;enable-background:new    ;" d="M200.973,372.914c4.489,15.526,8.904,28.574,8.904,28.574
					l-12.564,3.316c0,0-0.894-1.844-2.347-5.001c-6.631-14.399-24.969-56.086-23.731-74.285
					c1.369-20.229,26.879-76.985,26.879-76.985l26.953,4.033c0,0-29.188,49.911-33.38,74.229
					C190.998,335.707,196.036,355.805,200.973,372.914z"/>
			</g>
			<path style="opacity:0.2;enable-background:new    ;" d="M214.628,265.409c-6.637,3.006-11.075,18.794-10.784,27.125
				c4.615-9.932,9.687-19.655,13.706-27.093C216.653,264.905,215.537,264.893,214.628,265.409z"/>
			<path style="opacity:0.2;enable-background:new    ;" d="M209.876,401.488l-12.564,3.316c0,0-0.894-1.844-2.347-5.001
				c3.483-9.304,5.253-20.816,6.007-26.888C205.462,388.44,209.876,401.488,209.876,401.488z"/>
		</g>
		<g>
			<path style="fill:#263238;" d="M197.766,244.845l37.24,1.299c0,0,0.241,12.211-2.577,21.301l-36.964-12.876L197.766,244.845z"/>
			<path style="opacity:0.2;fill:#FFFFFF;enable-background:new    ;" d="M197.766,244.845l37.24,1.299
				c0,0,0.241,12.211-2.577,21.301l-36.964-12.876L197.766,244.845z"/>
		</g>
		<path style="fill:#263238;" d="M205.063,407.88l8.476,0.278c0.286,0.011,0.526,0.218,0.579,0.499l1.172,6.258
			c0.1,0.56-0.274,1.095-0.834,1.194c-0.075,0.013-0.151,0.018-0.227,0.015c-2.741-0.134-4.732-0.368-8.176-0.481
			c-2.121-0.069-8.527-0.057-11.456-0.153c-2.929-0.096-3.215-3.002-2.009-3.229c5.417-0.995,9.517-2.487,11.289-3.975
			C204.206,408.003,204.63,407.858,205.063,407.88z"/>
		<g>
			<path style="fill:#263238;" d="M211.44,247.714c0,0-6.426,59.511-6.716,79.968c-0.327,22.43-1.599,80.595-1.599,80.595
				l11.994,1.826c0,0,6.669-55.102,8.926-76.836c2.563-24.77,9.681-75.129,9.681-75.129L211.44,247.714z"/>
			<path style="opacity:0.2;fill:#FFFFFF;enable-background:new    ;" d="M211.44,247.714c0,0-6.426,59.511-6.716,79.968
				c-0.327,22.43-1.599,80.595-1.599,80.595l11.994,1.826c0,0,6.669-55.102,8.926-76.836c2.563-24.77,9.681-75.129,9.681-75.129
				L211.44,247.714z"/>
		</g>
		<g>
			<g>
				<polygon style="fill:#263238;" points="203.798,250.204 221.302,251.314 221.521,247.041 204.006,246.145 				"/>
				<polygon style="fill:#263238;" points="222.851,247.109 222.631,251.398 234.596,252.156 234.823,247.722 				"/>
				<polygon style="fill:#263238;" points="202.676,246.076 197.577,245.815 196.898,249.767 202.469,250.12 				"/>
			</g>
			
				<rect x="207.572" y="246.244" transform="matrix(0.9987 0.0511 -0.0511 0.9987 12.9905 -10.4619)" style="fill:#FFFFFF;" width="6.898" height="4.97"/>
		</g>
		<path style="fill:#407BFF;" d="M194.262,194.49c-3.173,0.616-12.465,22.654-12.465,22.654l8.775,11.102l3.842-5.362
			L194.262,194.49z"/>
		<path style="opacity:0.4;fill:#FFFFFF;enable-background:new    ;" d="M194.262,194.487l0.078,14.029l0.072,14.368l-3.84,5.364
			l-2.182-2.768l-6.594-8.336C181.795,217.144,191.085,195.105,194.262,194.487z"/>
		<path style="opacity:0.2;enable-background:new    ;" d="M194.339,208.516l0.072,14.368l-3.84,5.364l-2.182-2.768
			C187.804,217.254,192.075,211.139,194.339,208.516z"/>
		<g>
			<path style="fill:#263238;" d="M179.695,203.138c0.068,0.374-0.186,0.698-0.567,0.723l-6.786,0.458
				c-0.381,0.026-0.746-0.256-0.814-0.63l-2.419-13.291c-0.068-0.374,0.179-0.79,0.561-0.816l6.786-0.458
				c0.382-0.026,0.752,0.349,0.821,0.723L179.695,203.138z"/>
			<path style="opacity:0.5;fill:#FFFFFF;" d="M176.518,189.809l2.447,13.42c0.069,0.378-0.112,0.651-0.491,0.676l-5.755,0.388
				c-0.386,0.026-1.108-0.139-1.177-0.517l-2.45-13.466c-0.069-0.378,0.569-0.728,0.955-0.754l5.755-0.388
				C176.181,189.142,176.448,189.431,176.518,189.809z"/>
		</g>
		<path style="fill:#263238;" d="M194.262,194.49c0,0,24.059-3.67,42.482-1.992c0,0-4.613,35.585-2.201,54.174l-36.168-1.233
			C198.375,245.439,190.165,214.421,194.262,194.49z"/>
		<path style="fill:#EBB376;" d="M222.43,192.288c-3.112,3.546-11.745,3.344-11.745,3.344s-5.47-0.851-4.544-2.635
			c3.067-0.871,4.415-2.501,4.828-4.438c0.239-1.128,0.155-2.357-0.087-3.605c-0.12-0.656-0.296-1.315-0.488-1.963l9.627-8.973
			C219.225,179.31,218.611,188.95,222.43,192.288z"/>
		<path style="opacity:0.2;enable-background:new    ;" d="M218.153,179.239c0.298,6.353-4.687,8.679-7.184,9.32
			c0.239-1.128,0.155-2.357-0.087-3.605L218.153,179.239z"/>
		<g>
			<polygon style="fill:#407BFF;" points="222.21,190.347 217.601,193.333 226.52,252.156 241.014,257.599 236.744,192.497 			"/>
			<polygon style="opacity:0.4;fill:#FFFFFF;enable-background:new    ;" points="241.013,257.597 226.521,252.158 217.598,193.334 
				222.209,190.354 236.747,192.505 237.222,198.093 237.995,207.118 238.908,217.94 239.709,233.102 			"/>
			<polygon style="fill:#407BFF;" points="217.601,193.333 222.819,188.166 226.725,190.706 222.949,196.862 			"/>
			<polygon style="opacity:0.6;fill:#FFFFFF;enable-background:new    ;" points="217.601,193.333 222.819,188.166 226.725,190.706 
				222.949,196.862 			"/>
		</g>
		<g>
			<path style="fill:#407BFF;" d="M206.141,192.997c-2.035,3.625-5.63,63.509-5.63,63.509l-7.569-0.022
				c0,0-3.026-57.535,1.32-61.994L206.141,192.997z"/>
			<path style="opacity:0.4;fill:#FFFFFF;enable-background:new    ;" d="M206.141,192.997c-2.035,3.625-5.63,63.509-5.63,63.509
				l-7.569-0.022c0,0-3.026-57.535,1.32-61.994L206.141,192.997z"/>
			<polygon style="fill:#407BFF;" points="207.56,189.895 202.846,193.37 202.957,196.721 207.018,193.109 			"/>
			<polygon style="opacity:0.6;fill:#FFFFFF;enable-background:new    ;" points="207.56,189.895 202.846,193.37 202.957,196.721 
				207.018,193.109 			"/>
		</g>
		<path style="opacity:0.2;enable-background:new    ;" d="M237.994,207.118l0.915,10.821c-3.848-5.382-2.77-14.16-2.77-14.16
			S236.926,205.149,237.994,207.118z"/>
		<g>
			<path style="fill:#263238;" d="M206.552,163.548c3.082,1.616,2.154,5.055-3.734,10.939c-3.015-3.111-4.205-9.681-2.305-11.583
				C202.414,161.002,203.867,162.152,206.552,163.548z"/>
			<path style="fill:#EBB376;" d="M219.464,167.48c0.485,7.028,1.121,11.112-1.924,15.153c-4.589,6.074-13.614,4.012-16.191-2.732
				c-2.306-6.058-2.719-16.537,3.74-20.201c4.602-2.641,10.475-1.052,13.116,3.55C218.947,164.544,219.378,165.991,219.464,167.48z"
				/>
			<path style="fill:#263238;" d="M209.304,170.755c0.074,0.567-0.169,1.067-0.539,1.114c-0.371,0.047-0.726-0.368-0.8-0.936
				c-0.074-0.567,0.161-1.064,0.529-1.119C208.862,169.76,209.192,170.201,209.304,170.755z"/>
			<path style="fill:#263238;" d="M202.855,171.609c0.074,0.567-0.169,1.067-0.539,1.114c-0.371,0.047-0.733-0.366-0.81-0.941
				c-0.077-0.575,0.169-1.067,0.539-1.114C202.415,170.622,202.781,171.042,202.855,171.609z"/>
			<path style="fill:#D58745;" d="M204.994,171.6c-0.449,1.824-1.148,3.576-2.076,5.209c1.148,0.803,2.781,0.149,2.781,0.149
				L204.994,171.6z"/>
			<path style="fill:#263238;" d="M210.799,168.49c0.075-0.001,0.148-0.027,0.206-0.074c0.133-0.13,0.137-0.342,0.01-0.477
				c-0.741-0.792-1.821-1.173-2.895-1.02c-0.177,0.029-0.296,0.195-0.268,0.372c0.001,0.008,0.003,0.016,0.005,0.023
				c0.042,0.178,0.215,0.293,0.395,0.263l0,0c0.848-0.107,1.695,0.202,2.276,0.829C210.603,168.471,210.701,168.502,210.799,168.49z
				"/>
			<path style="fill:#263238;" d="M199.633,169.82c0.129-0.018,0.236-0.107,0.279-0.229c0.247-0.82,0.87-1.471,1.678-1.754
				c0.179-0.049,0.286-0.233,0.24-0.413c-0.048-0.176-0.227-0.283-0.405-0.242c-1.029,0.342-1.829,1.161-2.148,2.197
				c-0.059,0.173,0.033,0.362,0.207,0.422c0.002,0,0.003,0.001,0.005,0.002C199.536,169.817,199.584,169.823,199.633,169.82z"/>
			<path style="fill:#263238;" d="M215.877,161.665c-3.113,1.544-2.253,5.006,3.509,11.006c3.082-3.048,4.411-9.599,2.542-11.528
				C220.059,159.212,218.596,160.321,215.877,161.665z"/>
			<path style="fill:#EBB376;" d="M223.516,172.62c-0.264,1.753-1.213,3.331-2.638,4.386c-1.899,1.377-3.659-0.127-3.816-2.343
				c-0.139-1.998,0.687-5.125,2.918-5.622C222.211,168.544,223.829,170.469,223.516,172.62z"/>
			<path style="fill:#263238;" d="M221.447,160.712c0,0,0.868-2.656-3.777-5.676c-4.645-3.02-12.733-1.559-18.2,1.688
				c-5.467,3.248,0.349,8.48,2.834,8.809l-0.618-0.926c0,0,4.316,0.678,7.945-0.621l-1.54-0.668
				C208.09,163.318,218.184,162.405,221.447,160.712z"/>
			<g>
				<path style="fill:#263238;" d="M206.718,178.571c0.489,0.783,1.066,2.294,1.066,2.294c0.146-0.028,0.293-0.055,0.437-0.09
					c1.975-0.425,2.751-1.274,3.012-2.087c0.141-0.445,0.123-0.884,0.062-1.232c-0.066-0.403-0.205-0.675-0.205-0.675
					c-0.913,0.851-2.723,1.388-3.703,1.635C206.98,178.524,206.718,178.571,206.718,178.571z"/>
				<path style="fill:#FFFFFF;" d="M207.389,178.416l0.332,0.669c1.859-0.405,3.114-0.939,3.575-1.628
					c-0.066-0.403-0.205-0.675-0.205-0.675C210.179,177.632,208.368,178.169,207.389,178.416z"/>
				<path style="fill:#A24E3F;" d="M208.221,180.775c1.975-0.425,2.751-1.274,3.012-2.087c-0.667,0.171-1.453,0.451-2.1,0.906
					C208.638,179.941,208.372,180.368,208.221,180.775z"/>
			</g>
		</g>
		<g>
			<path style="fill:#263238;" d="M242.573,202.27c1.416,2.365,2.645,4.599,3.878,6.951c1.214,2.337,2.353,4.722,3.422,7.175
				c1.07,2.454,2.055,4.978,2.865,7.678c0.403,1.354,0.768,2.749,1.047,4.239c0.274,1.491,0.475,3.083,0.411,4.926l-0.005,0.15
				c-0.01,0.285-0.056,0.583-0.122,0.85c-0.455,1.786-1.076,3.295-1.75,4.708c-0.676,1.41-1.408,2.72-2.168,3.985
				c-1.528,2.516-3.172,4.844-4.874,7.095c-1.711,2.243-3.51,4.382-5.35,6.468c-0.935,1.032-1.88,2.05-2.838,3.057l-1.449,1.502
				l-0.735,0.747c-0.233,0.267-0.51,0.475-1.289,0.274c-1.986-0.513-3.525-1.879-4.326-3.605l-0.31-0.677
				c-0.32-0.699-0.145-0.995,0.075-1.231l0.613-0.772l1.216-1.563c0.805-1.048,1.597-2.106,2.375-3.172
				c1.584-2.107,3.103-4.252,4.56-6.4c1.46-2.143,2.831-4.321,4.007-6.499c1.148-2.144,2.168-4.425,2.507-6.17l-0.127,1
				c-0.02-1.427-0.587-3.63-1.334-5.705c-0.761-2.117-1.711-4.283-2.742-6.437c-1.033-2.155-2.176-4.295-3.359-6.421
				c-1.169-2.107-2.442-4.281-3.677-6.232l-0.038-0.06c-1.651-2.608-0.875-6.06,1.732-7.712c2.608-1.651,6.061-0.876,7.712,1.732
				C242.52,202.183,242.554,202.238,242.573,202.27z"/>
		</g>
		<path style="opacity:0.2;enable-background:new    ;" d="M239.709,233.102c-6.836-6.585-10.403-19.791-10.403-19.791
			c0.587-5.029,3.791-11.158,7.917-15.218l0.773,9.025l0.913,10.822L239.709,233.102z"/>
		<g>
			<path style="fill:#407BFF;" d="M236.747,192.501c4.631,1.357,14.456,23.288,14.456,23.288l-13.748,10.056l-8.147-12.538
				c0,0-2.245-9.308,0-14.993C231.553,192.63,236.747,192.501,236.747,192.501z"/>
			<path style="opacity:0.4;fill:#FFFFFF;enable-background:new    ;" d="M236.747,192.501c4.631,1.357,14.456,23.288,14.456,23.288
				l-13.748,10.056l-8.147-12.538c0,0-2.245-9.308,0-14.993C231.553,192.63,236.747,192.501,236.747,192.501z"/>
		</g>
		<g>
			<path style="fill:#EBB376;" d="M166.819,206.675l-0.433-7.798l8.01,3.297c0,0-0.034,6.981-3.63,6.812L166.819,206.675z"/>
			<polygon style="fill:#EBB376;" points="170.038,192.058 175.963,197.232 174.396,202.175 166.387,198.877 			"/>
		</g>
		<path style="fill:#263238;" d="M228.309,254.037c0,0,5.998,4.114,7.691,10.163l-7.691,10.224
			C228.309,274.425,222.076,261.403,228.309,254.037z"/>
		<path style="opacity:0.2;fill:#FFFFFF;enable-background:new    ;" d="M228.309,254.037c0,0,5.998,4.114,7.691,10.163
			l-7.691,10.224C228.309,274.425,222.076,261.403,228.309,254.037z"/>
	</g>
</g>
</svg>
